<svg xmlns="http://www.w3.org/2000/svg" xmlns:xlink="http://www.w3.org/1999/xlink" contentStyleType="text/css" height="423px" preserveAspectRatio="none" style="width:930px;height:423px;background:#FFFFFF;" version="1.1" viewBox="0 0 930 423" width="930px" zoomAndPan="magnify"><defs/><g><text fill="#000000" font-family="sans-serif" font-size="14" font-weight="bold" lengthAdjust="spacing" textLength="83.501" x="416.6489" y="22.9951">Connecta4</text><!--class GameConnecta4--><g id="elem_GameConnecta4"><rect codeLine="3" fill="#F1F1F1" height="48" id="GameConnecta4" rx="2.5" ry="2.5" style="stroke:#181818;stroke-width:0.5;" width="149.0518" x="178.5" y="44.2969"/><ellipse cx="193.5" cy="60.2969" fill="#ADD1B2" rx="11" ry="11" style="stroke:#181818;stroke-width:1.0;"/><path d="M196.4688,65.9375 Q195.8906,66.2344 195.25,66.375 Q194.6094,66.5313 193.9063,66.5313 Q191.4063,66.5313 190.0781,64.8906 Q188.7656,63.2344 188.7656,60.1094 Q188.7656,56.9844 190.0781,55.3281 Q191.4063,53.6719 193.9063,53.6719 Q194.6094,53.6719 195.25,53.8281 Q195.9063,53.9844 196.4688,54.2813 L196.4688,57 Q195.8438,56.4219 195.25,56.1563 Q194.6563,55.875 194.0313,55.875 Q192.6875,55.875 192,56.9531 Q191.3125,58.0156 191.3125,60.1094 Q191.3125,62.2031 192,63.2813 Q192.6875,64.3438 194.0313,64.3438 Q194.6563,64.3438 195.25,64.0781 Q195.8438,63.7969 196.4688,63.2188 L196.4688,65.9375 Z " fill="#000000"/><text fill="#000000" font-family="sans-serif" font-size="14" lengthAdjust="spacing" textLength="117.0518" x="207.5" y="65.1436">GameConnecta4</text><line style="stroke:#181818;stroke-width:0.5;" x1="179.5" x2="326.5518" y1="76.2969" y2="76.2969"/><line style="stroke:#181818;stroke-width:0.5;" x1="179.5" x2="326.5518" y1="84.2969" y2="84.2969"/></g><!--class Board--><g id="elem_Board"><rect fill="#F1F1F1" height="48" id="Board" rx="2.5" ry="2.5" style="stroke:#181818;stroke-width:0.5;" width="73.3916" x="106.5" y="152.2969"/><ellipse cx="121.5" cy="168.2969" fill="#ADD1B2" rx="11" ry="11" style="stroke:#181818;stroke-width:1.0;"/><path d="M124.4688,173.9375 Q123.8906,174.2344 123.25,174.375 Q122.6094,174.5313 121.9063,174.5313 Q119.4063,174.5313 118.0781,172.8906 Q116.7656,171.2344 116.7656,168.1094 Q116.7656,164.9844 118.0781,163.3281 Q119.4063,161.6719 121.9063,161.6719 Q122.6094,161.6719 123.25,161.8281 Q123.9063,161.9844 124.4688,162.2813 L124.4688,165 Q123.8438,164.4219 123.25,164.1563 Q122.6563,163.875 122.0313,163.875 Q120.6875,163.875 120,164.9531 Q119.3125,166.0156 119.3125,168.1094 Q119.3125,170.2031 120,171.2813 Q120.6875,172.3438 122.0313,172.3438 Q122.6563,172.3438 123.25,172.0781 Q123.8438,171.7969 124.4688,171.2188 L124.4688,173.9375 Z " fill="#000000"/><text fill="#000000" font-family="sans-serif" font-size="14" lengthAdjust="spacing" textLength="41.3916" x="135.5" y="173.1436">Board</text><line style="stroke:#181818;stroke-width:0.5;" x1="107.5" x2="178.8916" y1="184.2969" y2="184.2969"/><line style="stroke:#181818;stroke-width:0.5;" x1="107.5" x2="178.8916" y1="192.2969" y2="192.2969"/></g><!--class Player--><g id="elem_Player"><rect fill="#F1F1F1" height="48" id="Player" rx="2.5" ry="2.5" style="stroke:#181818;stroke-width:0.5;" width="75.5654" x="215" y="152.2969"/><ellipse cx="230" cy="168.2969" fill="#ADD1B2" rx="11" ry="11" style="stroke:#181818;stroke-width:1.0;"/><path d="M232.9688,173.9375 Q232.3906,174.2344 231.75,174.375 Q231.1094,174.5313 230.4063,174.5313 Q227.9063,174.5313 226.5781,172.8906 Q225.2656,171.2344 225.2656,168.1094 Q225.2656,164.9844 226.5781,163.3281 Q227.9063,161.6719 230.4063,161.6719 Q231.1094,161.6719 231.75,161.8281 Q232.4063,161.9844 232.9688,162.2813 L232.9688,165 Q232.3438,164.4219 231.75,164.1563 Q231.1563,163.875 230.5313,163.875 Q229.1875,163.875 228.5,164.9531 Q227.8125,166.0156 227.8125,168.1094 Q227.8125,170.2031 228.5,171.2813 Q229.1875,172.3438 230.5313,172.3438 Q231.1563,172.3438 231.75,172.0781 Q232.3438,171.7969 232.9688,171.2188 L232.9688,173.9375 Z " fill="#000000"/><text fill="#000000" font-family="sans-serif" font-size="14" lengthAdjust="spacing" textLength="43.5654" x="244" y="173.1436">Player</text><line style="stroke:#181818;stroke-width:0.5;" x1="216" x2="289.5654" y1="184.2969" y2="184.2969"/><line style="stroke:#181818;stroke-width:0.5;" x1="216" x2="289.5654" y1="192.2969" y2="192.2969"/></g><!--class Disk--><g id="elem_Disk"><rect fill="#F1F1F1" height="48" id="Disk" rx="2.5" ry="2.5" style="stroke:#181818;stroke-width:0.5;" width="62.0713" x="783" y="260.2969"/><ellipse cx="798" cy="276.2969" fill="#ADD1B2" rx="11" ry="11" style="stroke:#181818;stroke-width:1.0;"/><path d="M800.9688,281.9375 Q800.3906,282.2344 799.75,282.375 Q799.1094,282.5313 798.4063,282.5313 Q795.9063,282.5313 794.5781,280.8906 Q793.2656,279.2344 793.2656,276.1094 Q793.2656,272.9844 794.5781,271.3281 Q795.9063,269.6719 798.4063,269.6719 Q799.1094,269.6719 799.75,269.8281 Q800.4063,269.9844 800.9688,270.2813 L800.9688,273 Q800.3438,272.4219 799.75,272.1563 Q799.1563,271.875 798.5313,271.875 Q797.1875,271.875 796.5,272.9531 Q795.8125,274.0156 795.8125,276.1094 Q795.8125,278.2031 796.5,279.2813 Q797.1875,280.3438 798.5313,280.3438 Q799.1563,280.3438 799.75,280.0781 Q800.3438,279.7969 800.9688,279.2188 L800.9688,281.9375 Z " fill="#000000"/><text fill="#000000" font-family="sans-serif" font-size="14" lengthAdjust="spacing" textLength="30.0713" x="812" y="281.1436">Disk</text><line style="stroke:#181818;stroke-width:0.5;" x1="784" x2="844.0713" y1="292.2969" y2="292.2969"/><line style="stroke:#181818;stroke-width:0.5;" x1="784" x2="844.0713" y1="300.2969" y2="300.2969"/></g><!--class Square--><g id="elem_Square"><rect fill="#F1F1F1" height="48" id="Square" rx="2.5" ry="2.5" style="stroke:#181818;stroke-width:0.5;" width="81.5947" x="87" y="260.2969"/><ellipse cx="102" cy="276.2969" fill="#ADD1B2" rx="11" ry="11" style="stroke:#181818;stroke-width:1.0;"/><path d="M104.9688,281.9375 Q104.3906,282.2344 103.75,282.375 Q103.1094,282.5313 102.4063,282.5313 Q99.9063,282.5313 98.5781,280.8906 Q97.2656,279.2344 97.2656,276.1094 Q97.2656,272.9844 98.5781,271.3281 Q99.9063,269.6719 102.4063,269.6719 Q103.1094,269.6719 103.75,269.8281 Q104.4063,269.9844 104.9688,270.2813 L104.9688,273 Q104.3438,272.4219 103.75,272.1563 Q103.1563,271.875 102.5313,271.875 Q101.1875,271.875 100.5,272.9531 Q99.8125,274.0156 99.8125,276.1094 Q99.8125,278.2031 100.5,279.2813 Q101.1875,280.3438 102.5313,280.3438 Q103.1563,280.3438 103.75,280.0781 Q104.3438,279.7969 104.9688,279.2188 L104.9688,281.9375 Z " fill="#000000"/><text fill="#000000" font-family="sans-serif" font-size="14" lengthAdjust="spacing" textLength="49.5947" x="116" y="281.1436">Square</text><line style="stroke:#181818;stroke-width:0.5;" x1="88" x2="167.5947" y1="292.2969" y2="292.2969"/><line style="stroke:#181818;stroke-width:0.5;" x1="88" x2="167.5947" y1="300.2969" y2="300.2969"/></g><!--class File--><g id="elem_File"><rect fill="#F1F1F1" height="48" id="File" rx="2.5" ry="2.5" style="stroke:#181818;stroke-width:0.5;" width="56.4453" x="153" y="368.2969"/><ellipse cx="168" cy="384.2969" fill="#ADD1B2" rx="11" ry="11" style="stroke:#181818;stroke-width:1.0;"/><path d="M170.9688,389.9375 Q170.3906,390.2344 169.75,390.375 Q169.1094,390.5313 168.4063,390.5313 Q165.9063,390.5313 164.5781,388.8906 Q163.2656,387.2344 163.2656,384.1094 Q163.2656,380.9844 164.5781,379.3281 Q165.9063,377.6719 168.4063,377.6719 Q169.1094,377.6719 169.75,377.8281 Q170.4063,377.9844 170.9688,378.2813 L170.9688,381 Q170.3438,380.4219 169.75,380.1563 Q169.1563,379.875 168.5313,379.875 Q167.1875,379.875 166.5,380.9531 Q165.8125,382.0156 165.8125,384.1094 Q165.8125,386.2031 166.5,387.2813 Q167.1875,388.3438 168.5313,388.3438 Q169.1563,388.3438 169.75,388.0781 Q170.3438,387.7969 170.9688,387.2188 L170.9688,389.9375 Z " fill="#000000"/><text fill="#000000" font-family="sans-serif" font-size="14" lengthAdjust="spacing" textLength="24.4453" x="182" y="389.1436">File</text><line style="stroke:#181818;stroke-width:0.5;" x1="154" x2="208.4453" y1="400.2969" y2="400.2969"/><line style="stroke:#181818;stroke-width:0.5;" x1="154" x2="208.4453" y1="408.2969" y2="408.2969"/></g><!--class Column--><g id="elem_Column"><rect fill="#F1F1F1" height="48" id="Column" rx="2.5" ry="2.5" style="stroke:#181818;stroke-width:0.5;" width="85.6143" x="32" y="368.2969"/><ellipse cx="47" cy="384.2969" fill="#ADD1B2" rx="11" ry="11" style="stroke:#181818;stroke-width:1.0;"/><path d="M49.9688,389.9375 Q49.3906,390.2344 48.75,390.375 Q48.1094,390.5313 47.4063,390.5313 Q44.9063,390.5313 43.5781,388.8906 Q42.2656,387.2344 42.2656,384.1094 Q42.2656,380.9844 43.5781,379.3281 Q44.9063,377.6719 47.4063,377.6719 Q48.1094,377.6719 48.75,377.8281 Q49.4063,377.9844 49.9688,378.2813 L49.9688,381 Q49.3438,380.4219 48.75,380.1563 Q48.1563,379.875 47.5313,379.875 Q46.1875,379.875 45.5,380.9531 Q44.8125,382.0156 44.8125,384.1094 Q44.8125,386.2031 45.5,387.2813 Q46.1875,388.3438 47.5313,388.3438 Q48.1563,388.3438 48.75,388.0781 Q49.3438,387.7969 49.9688,387.2188 L49.9688,389.9375 Z " fill="#000000"/><text fill="#000000" font-family="sans-serif" font-size="14" lengthAdjust="spacing" textLength="53.6143" x="61" y="389.1436">Column</text><line style="stroke:#181818;stroke-width:0.5;" x1="33" x2="116.6143" y1="400.2969" y2="400.2969"/><line style="stroke:#181818;stroke-width:0.5;" x1="33" x2="116.6143" y1="408.2969" y2="408.2969"/></g><!--class HollowSquare--><g id="elem_HollowSquare"><rect fill="#F1F1F1" height="48" id="HollowSquare" rx="2.5" ry="2.5" style="stroke:#181818;stroke-width:0.5;" width="128.4824" x="423" y="368.2969"/><ellipse cx="438" cy="384.2969" fill="#ADD1B2" rx="11" ry="11" style="stroke:#181818;stroke-width:1.0;"/><path d="M440.9688,389.9375 Q440.3906,390.2344 439.75,390.375 Q439.1094,390.5313 438.4063,390.5313 Q435.9063,390.5313 434.5781,388.8906 Q433.2656,387.2344 433.2656,384.1094 Q433.2656,380.9844 434.5781,379.3281 Q435.9063,377.6719 438.4063,377.6719 Q439.1094,377.6719 439.75,377.8281 Q440.4063,377.9844 440.9688,378.2813 L440.9688,381 Q440.3438,380.4219 439.75,380.1563 Q439.1563,379.875 438.5313,379.875 Q437.1875,379.875 436.5,380.9531 Q435.8125,382.0156 435.8125,384.1094 Q435.8125,386.2031 436.5,387.2813 Q437.1875,388.3438 438.5313,388.3438 Q439.1563,388.3438 439.75,388.0781 Q440.3438,387.7969 440.9688,387.2188 L440.9688,389.9375 Z " fill="#000000"/><text fill="#000000" font-family="sans-serif" font-size="14" lengthAdjust="spacing" textLength="96.4824" x="452" y="389.1436">HollowSquare</text><line style="stroke:#181818;stroke-width:0.5;" x1="424" x2="550.4824" y1="400.2969" y2="400.2969"/><line style="stroke:#181818;stroke-width:0.5;" x1="424" x2="550.4824" y1="408.2969" y2="408.2969"/></g><!--class Turn--><g id="elem_Turn"><rect fill="#F1F1F1" height="48" id="Turn" rx="2.5" ry="2.5" style="stroke:#181818;stroke-width:0.5;" width="64.0537" x="7" y="152.2969"/><ellipse cx="22" cy="168.2969" fill="#ADD1B2" rx="11" ry="11" style="stroke:#181818;stroke-width:1.0;"/><path d="M24.9688,173.9375 Q24.3906,174.2344 23.75,174.375 Q23.1094,174.5313 22.4063,174.5313 Q19.9063,174.5313 18.5781,172.8906 Q17.2656,171.2344 17.2656,168.1094 Q17.2656,164.9844 18.5781,163.3281 Q19.9063,161.6719 22.4063,161.6719 Q23.1094,161.6719 23.75,161.8281 Q24.4063,161.9844 24.9688,162.2813 L24.9688,165 Q24.3438,164.4219 23.75,164.1563 Q23.1563,163.875 22.5313,163.875 Q21.1875,163.875 20.5,164.9531 Q19.8125,166.0156 19.8125,168.1094 Q19.8125,170.2031 20.5,171.2813 Q21.1875,172.3438 22.5313,172.3438 Q23.1563,172.3438 23.75,172.0781 Q24.3438,171.7969 24.9688,171.2188 L24.9688,173.9375 Z " fill="#000000"/><text fill="#000000" font-family="sans-serif" font-size="14" lengthAdjust="spacing" textLength="32.0537" x="36" y="173.1436">Turn</text><line style="stroke:#181818;stroke-width:0.5;" x1="8" x2="70.0537" y1="184.2969" y2="184.2969"/><line style="stroke:#181818;stroke-width:0.5;" x1="8" x2="70.0537" y1="192.2969" y2="192.2969"/></g><!--class RedDisk--><g id="elem_RedDisk"><rect fill="#F1F1F1" height="48" id="RedDisk" rx="2.5" ry="2.5" style="stroke:#181818;stroke-width:0.5;" width="89.2988" x="834.5" y="368.2969"/><ellipse cx="849.5" cy="384.2969" fill="#ADD1B2" rx="11" ry="11" style="stroke:#181818;stroke-width:1.0;"/><path d="M852.4688,389.9375 Q851.8906,390.2344 851.25,390.375 Q850.6094,390.5313 849.9063,390.5313 Q847.4063,390.5313 846.0781,388.8906 Q844.7656,387.2344 844.7656,384.1094 Q844.7656,380.9844 846.0781,379.3281 Q847.4063,377.6719 849.9063,377.6719 Q850.6094,377.6719 851.25,377.8281 Q851.9063,377.9844 852.4688,378.2813 L852.4688,381 Q851.8438,380.4219 851.25,380.1563 Q850.6563,379.875 850.0313,379.875 Q848.6875,379.875 848,380.9531 Q847.3125,382.0156 847.3125,384.1094 Q847.3125,386.2031 848,387.2813 Q848.6875,388.3438 850.0313,388.3438 Q850.6563,388.3438 851.25,388.0781 Q851.8438,387.7969 852.4688,387.2188 L852.4688,389.9375 Z " fill="#000000"/><text fill="#000000" font-family="sans-serif" font-size="14" lengthAdjust="spacing" textLength="57.2988" x="863.5" y="389.1436">RedDisk</text><line style="stroke:#181818;stroke-width:0.5;" x1="835.5" x2="922.7988" y1="400.2969" y2="400.2969"/><line style="stroke:#181818;stroke-width:0.5;" x1="835.5" x2="922.7988" y1="408.2969" y2="408.2969"/></g><!--class BlackDisk--><g id="elem_BlackDisk"><rect fill="#F1F1F1" height="48" id="BlackDisk" rx="2.5" ry="2.5" style="stroke:#181818;stroke-width:0.5;" width="99.9492" x="699" y="368.2969"/><ellipse cx="714" cy="384.2969" fill="#ADD1B2" rx="11" ry="11" style="stroke:#181818;stroke-width:1.0;"/><path d="M716.9688,389.9375 Q716.3906,390.2344 715.75,390.375 Q715.1094,390.5313 714.4063,390.5313 Q711.9063,390.5313 710.5781,388.8906 Q709.2656,387.2344 709.2656,384.1094 Q709.2656,380.9844 710.5781,379.3281 Q711.9063,377.6719 714.4063,377.6719 Q715.1094,377.6719 715.75,377.8281 Q716.4063,377.9844 716.9688,378.2813 L716.9688,381 Q716.3438,380.4219 715.75,380.1563 Q715.1563,379.875 714.5313,379.875 Q713.1875,379.875 712.5,380.9531 Q711.8125,382.0156 711.8125,384.1094 Q711.8125,386.2031 712.5,387.2813 Q713.1875,388.3438 714.5313,388.3438 Q715.1563,388.3438 715.75,388.0781 Q716.3438,387.7969 716.9688,387.2188 L716.9688,389.9375 Z " fill="#000000"/><text fill="#000000" font-family="sans-serif" font-size="14" lengthAdjust="spacing" textLength="67.9492" x="728" y="389.1436">BlackDisk</text><line style="stroke:#181818;stroke-width:0.5;" x1="700" x2="797.9492" y1="400.2969" y2="400.2969"/><line style="stroke:#181818;stroke-width:0.5;" x1="700" x2="797.9492" y1="408.2969" y2="408.2969"/></g><!--class Movement--><g id="elem_Movement"><rect fill="#F1F1F1" height="48" id="Movement" rx="2.5" ry="2.5" style="stroke:#181818;stroke-width:0.5;" width="106.1563" x="326" y="152.2969"/><ellipse cx="341" cy="168.2969" fill="#ADD1B2" rx="11" ry="11" style="stroke:#181818;stroke-width:1.0;"/><path d="M343.9688,173.9375 Q343.3906,174.2344 342.75,174.375 Q342.1094,174.5313 341.4063,174.5313 Q338.9063,174.5313 337.5781,172.8906 Q336.2656,171.2344 336.2656,168.1094 Q336.2656,164.9844 337.5781,163.3281 Q338.9063,161.6719 341.4063,161.6719 Q342.1094,161.6719 342.75,161.8281 Q343.4063,161.9844 343.9688,162.2813 L343.9688,165 Q343.3438,164.4219 342.75,164.1563 Q342.1563,163.875 341.5313,163.875 Q340.1875,163.875 339.5,164.9531 Q338.8125,166.0156 338.8125,168.1094 Q338.8125,170.2031 339.5,171.2813 Q340.1875,172.3438 341.5313,172.3438 Q342.1563,172.3438 342.75,172.0781 Q343.3438,171.7969 343.9688,171.2188 L343.9688,173.9375 Z " fill="#000000"/><text fill="#000000" font-family="sans-serif" font-size="14" lengthAdjust="spacing" textLength="74.1563" x="355" y="173.1436">Movement</text><line style="stroke:#181818;stroke-width:0.5;" x1="327" x2="431.1563" y1="184.2969" y2="184.2969"/><line style="stroke:#181818;stroke-width:0.5;" x1="327" x2="431.1563" y1="192.2969" y2="192.2969"/></g><!--class Goal--><g id="elem_Goal"><rect fill="#F1F1F1" height="48" id="Goal" rx="2.5" ry="2.5" style="stroke:#181818;stroke-width:0.5;" width="63.8828" x="467" y="152.2969"/><ellipse cx="482" cy="168.2969" fill="#ADD1B2" rx="11" ry="11" style="stroke:#181818;stroke-width:1.0;"/><path d="M484.9688,173.9375 Q484.3906,174.2344 483.75,174.375 Q483.1094,174.5313 482.4063,174.5313 Q479.9063,174.5313 478.5781,172.8906 Q477.2656,171.2344 477.2656,168.1094 Q477.2656,164.9844 478.5781,163.3281 Q479.9063,161.6719 482.4063,161.6719 Q483.1094,161.6719 483.75,161.8281 Q484.4063,161.9844 484.9688,162.2813 L484.9688,165 Q484.3438,164.4219 483.75,164.1563 Q483.1563,163.875 482.5313,163.875 Q481.1875,163.875 480.5,164.9531 Q479.8125,166.0156 479.8125,168.1094 Q479.8125,170.2031 480.5,171.2813 Q481.1875,172.3438 482.5313,172.3438 Q483.1563,172.3438 483.75,172.0781 Q484.3438,171.7969 484.9688,171.2188 L484.9688,173.9375 Z " fill="#000000"/><text fill="#000000" font-family="sans-serif" font-size="14" lengthAdjust="spacing" textLength="31.8828" x="496" y="173.1436">Goal</text><line style="stroke:#181818;stroke-width:0.5;" x1="468" x2="529.8828" y1="184.2969" y2="184.2969"/><line style="stroke:#181818;stroke-width:0.5;" x1="468" x2="529.8828" y1="192.2969" y2="192.2969"/></g><!--class Diagonal--><g id="elem_Diagonal"><rect fill="#F1F1F1" height="48" id="Diagonal" rx="2.5" ry="2.5" style="stroke:#181818;stroke-width:0.5;" width="94.043" x="204" y="260.2969"/><ellipse cx="219" cy="276.2969" fill="#ADD1B2" rx="11" ry="11" style="stroke:#181818;stroke-width:1.0;"/><path d="M221.9688,281.9375 Q221.3906,282.2344 220.75,282.375 Q220.1094,282.5313 219.4063,282.5313 Q216.9063,282.5313 215.5781,280.8906 Q214.2656,279.2344 214.2656,276.1094 Q214.2656,272.9844 215.5781,271.3281 Q216.9063,269.6719 219.4063,269.6719 Q220.1094,269.6719 220.75,269.8281 Q221.4063,269.9844 221.9688,270.2813 L221.9688,273 Q221.3438,272.4219 220.75,272.1563 Q220.1563,271.875 219.5313,271.875 Q218.1875,271.875 217.5,272.9531 Q216.8125,274.0156 216.8125,276.1094 Q216.8125,278.2031 217.5,279.2813 Q218.1875,280.3438 219.5313,280.3438 Q220.1563,280.3438 220.75,280.0781 Q221.3438,279.7969 221.9688,279.2188 L221.9688,281.9375 Z " fill="#000000"/><text fill="#000000" font-family="sans-serif" font-size="14" lengthAdjust="spacing" textLength="62.043" x="233" y="281.1436">Diagonal</text><line style="stroke:#181818;stroke-width:0.5;" x1="205" x2="297.043" y1="292.2969" y2="292.2969"/><line style="stroke:#181818;stroke-width:0.5;" x1="205" x2="297.043" y1="300.2969" y2="300.2969"/></g><!--class Horizontal--><g id="elem_Horizontal"><rect fill="#F1F1F1" height="48" id="Horizontal" rx="2.5" ry="2.5" style="stroke:#181818;stroke-width:0.5;" width="103.4834" x="333.5" y="260.2969"/><ellipse cx="348.5" cy="276.2969" fill="#ADD1B2" rx="11" ry="11" style="stroke:#181818;stroke-width:1.0;"/><path d="M351.4688,281.9375 Q350.8906,282.2344 350.25,282.375 Q349.6094,282.5313 348.9063,282.5313 Q346.4063,282.5313 345.0781,280.8906 Q343.7656,279.2344 343.7656,276.1094 Q343.7656,272.9844 345.0781,271.3281 Q346.4063,269.6719 348.9063,269.6719 Q349.6094,269.6719 350.25,269.8281 Q350.9063,269.9844 351.4688,270.2813 L351.4688,273 Q350.8438,272.4219 350.25,272.1563 Q349.6563,271.875 349.0313,271.875 Q347.6875,271.875 347,272.9531 Q346.3125,274.0156 346.3125,276.1094 Q346.3125,278.2031 347,279.2813 Q347.6875,280.3438 349.0313,280.3438 Q349.6563,280.3438 350.25,280.0781 Q350.8438,279.7969 351.4688,279.2188 L351.4688,281.9375 Z " fill="#000000"/><text fill="#000000" font-family="sans-serif" font-size="14" lengthAdjust="spacing" textLength="71.4834" x="362.5" y="281.1436">Horizontal</text><line style="stroke:#181818;stroke-width:0.5;" x1="334.5" x2="435.9834" y1="292.2969" y2="292.2969"/><line style="stroke:#181818;stroke-width:0.5;" x1="334.5" x2="435.9834" y1="300.2969" y2="300.2969"/></g><!--class Vertical--><g id="elem_Vertical"><rect fill="#F1F1F1" height="48" id="Vertical" rx="2.5" ry="2.5" style="stroke:#181818;stroke-width:0.5;" width="85.4912" x="471.5" y="260.2969"/><ellipse cx="486.5" cy="276.2969" fill="#ADD1B2" rx="11" ry="11" style="stroke:#181818;stroke-width:1.0;"/><path d="M489.4688,281.9375 Q488.8906,282.2344 488.25,282.375 Q487.6094,282.5313 486.9063,282.5313 Q484.4063,282.5313 483.0781,280.8906 Q481.7656,279.2344 481.7656,276.1094 Q481.7656,272.9844 483.0781,271.3281 Q484.4063,269.6719 486.9063,269.6719 Q487.6094,269.6719 488.25,269.8281 Q488.9063,269.9844 489.4688,270.2813 L489.4688,273 Q488.8438,272.4219 488.25,272.1563 Q487.6563,271.875 487.0313,271.875 Q485.6875,271.875 485,272.9531 Q484.3125,274.0156 484.3125,276.1094 Q484.3125,278.2031 485,279.2813 Q485.6875,280.3438 487.0313,280.3438 Q487.6563,280.3438 488.25,280.0781 Q488.8438,279.7969 489.4688,279.2188 L489.4688,281.9375 Z " fill="#000000"/><text fill="#000000" font-family="sans-serif" font-size="14" lengthAdjust="spacing" textLength="53.4912" x="500.5" y="281.1436">Vertical</text><line style="stroke:#181818;stroke-width:0.5;" x1="472.5" x2="555.9912" y1="292.2969" y2="292.2969"/><line style="stroke:#181818;stroke-width:0.5;" x1="472.5" x2="555.9912" y1="300.2969" y2="300.2969"/></g><!--class MovementWinner--><g id="elem_MovementWinner"><rect fill="#F1F1F1" height="48" id="MovementWinner" rx="2.5" ry="2.5" style="stroke:#181818;stroke-width:0.5;" width="156.0039" x="592" y="260.2969"/><ellipse cx="607" cy="276.2969" fill="#ADD1B2" rx="11" ry="11" style="stroke:#181818;stroke-width:1.0;"/><path d="M609.9688,281.9375 Q609.3906,282.2344 608.75,282.375 Q608.1094,282.5313 607.4063,282.5313 Q604.9063,282.5313 603.5781,280.8906 Q602.2656,279.2344 602.2656,276.1094 Q602.2656,272.9844 603.5781,271.3281 Q604.9063,269.6719 607.4063,269.6719 Q608.1094,269.6719 608.75,269.8281 Q609.4063,269.9844 609.9688,270.2813 L609.9688,273 Q609.3438,272.4219 608.75,272.1563 Q608.1563,271.875 607.5313,271.875 Q606.1875,271.875 605.5,272.9531 Q604.8125,274.0156 604.8125,276.1094 Q604.8125,278.2031 605.5,279.2813 Q606.1875,280.3438 607.5313,280.3438 Q608.1563,280.3438 608.75,280.0781 Q609.3438,279.7969 609.9688,279.2188 L609.9688,281.9375 Z " fill="#000000"/><text fill="#000000" font-family="sans-serif" font-size="14" lengthAdjust="spacing" textLength="124.0039" x="621" y="281.1436">MovementWinner</text><line style="stroke:#181818;stroke-width:0.5;" x1="593" x2="747.0039" y1="292.2969" y2="292.2969"/><line style="stroke:#181818;stroke-width:0.5;" x1="593" x2="747.0039" y1="300.2969" y2="300.2969"/></g><!--link GameConnecta4 to Board--><g id="link_GameConnecta4_Board"><path codeLine="4" d="M220.4905,100.6251 C202.1705,118.2851 189.9305,130.0736 171.5205,147.8136 " fill="none" id="GameConnecta4-Board" style="stroke:#181818;stroke-width:1.0;"/><polygon fill="#181818" points="229.13,92.2969,222.0342,93.5812,220.4905,100.6251,227.5863,99.3408,229.13,92.2969" style="stroke:#181818;stroke-width:1.0;"/><polygon fill="#181818" points="167.2,151.9769,176.4563,148.6123,170.8004,148.5075,170.9053,142.8516,167.2,151.9769" style="stroke:#181818;stroke-width:1.0;"/><text fill="#000000" font-family="sans-serif" font-size="13" lengthAdjust="spacing" textLength="8.271" x="164.1091" y="141.3038">1</text></g><!--link GameConnecta4 to Player--><g id="link_GameConnecta4_Player"><path codeLine="5" d="M253,104.2969 C253,121.9569 253,128.2369 253,145.9769 " fill="none" id="GameConnecta4-Player" style="stroke:#181818;stroke-width:1.0;"/><polygon fill="#181818" points="253,92.2969,249,98.2969,253,104.2969,257,98.2969,253,92.2969" style="stroke:#181818;stroke-width:1.0;"/><polygon fill="#181818" points="253,151.9769,257,142.9769,253,146.9769,249,142.9769,253,151.9769" style="stroke:#181818;stroke-width:1.0;"/><text fill="#000000" font-family="sans-serif" font-size="13" lengthAdjust="spacing" textLength="8.271" x="244.111" y="141.3038">2</text></g><!--link GameConnecta4 to Disk--><g id="link_GameConnecta4_Disk"><path codeLine="6" d="M339.1842,88.9358 C399.8042,103.5858 475.37,124.0569 549,152.2969 C636.45,185.8369 728.6531,235.2085 777.4031,262.4685 " fill="none" id="GameConnecta4-Disk" style="stroke:#181818;stroke-width:1.0;"/><polygon fill="#181818" points="327.52,86.1169,332.4125,91.4144,339.1842,88.9358,334.2917,83.6382,327.52,86.1169" style="stroke:#181818;stroke-width:1.0;"/><polygon fill="#181818" points="782.64,265.3969,776.7369,257.5131,778.2759,262.9566,772.8325,264.4956,782.64,265.3969" style="stroke:#181818;stroke-width:1.0;"/><text fill="#000000" font-family="sans-serif" font-size="13" lengthAdjust="spacing" textLength="31.313" x="756.1591" y="253.598">2*21</text></g><!--link Board to Square--><g id="link_Board_Square"><path codeLine="8" d="M138.068,212.1784 C135.568,229.8384 134.6506,236.296 132.1406,254.036 " fill="none" id="Board-Square" style="stroke:#181818;stroke-width:1.0;"/><polygon fill="#181818" points="139.75,200.2969,134.9485,205.677,138.068,212.1784,142.8695,206.7983,139.75,200.2969" style="stroke:#181818;stroke-width:1.0;"/><polygon fill="#181818" points="131.3,259.9769,136.5214,251.626,132.0005,255.0262,128.6003,250.5053,131.3,259.9769" style="stroke:#181818;stroke-width:1.0;"/><text fill="#000000" font-family="sans-serif" font-size="13" lengthAdjust="spacing" textLength="24.2354" x="105.2575" y="249.3038">6x7</text></g><!--link Square to File--><g id="link_Square_File"><path codeLine="9" d="M144.8666,319.03 C153.6966,336.69 157.7867,344.8703 166.6567,362.6103 " fill="none" id="Square-File" style="stroke:#181818;stroke-width:1.0;"/><polygon fill="#181818" points="139.5,308.2969,138.6056,315.4523,144.8666,319.03,145.761,311.8746,139.5,308.2969" style="stroke:#181818;stroke-width:1.0;"/><polygon fill="#181818" points="169.34,367.9769,168.8928,358.1382,167.1039,363.5047,161.7374,361.7159,169.34,367.9769" style="stroke:#181818;stroke-width:1.0;"/><text fill="#000000" font-family="sans-serif" font-size="13" lengthAdjust="spacing" textLength="8.271" x="157.5016" y="357.3038">6</text></g><!--link Square to Column--><g id="link_Square_Column"><path codeLine="10" d="M111.1334,319.03 C102.3034,336.69 98.2133,344.8703 89.3433,362.6103 " fill="none" id="Square-Column" style="stroke:#181818;stroke-width:1.0;"/><polygon fill="#181818" points="116.5,308.2969,110.239,311.8746,111.1334,319.03,117.3944,315.4523,116.5,308.2969" style="stroke:#181818;stroke-width:1.0;"/><polygon fill="#181818" points="86.66,367.9769,94.2626,361.7159,88.8961,363.5047,87.1072,358.1382,86.66,367.9769" style="stroke:#181818;stroke-width:1.0;"/><text fill="#000000" font-family="sans-serif" font-size="13" lengthAdjust="spacing" textLength="8.271" x="80.6072" y="357.3038">7</text></g><!--link Square to HollowSquare--><g id="link_Square_HollowSquare"><path codeLine="11" d="M180.5243,306.5512 C186.1043,308.6612 180.56,306.4769 186,308.2969 C266.7,335.3369 355.7996,358.9699 417.1596,374.3299 " fill="none" id="Square-HollowSquare" style="stroke:#181818;stroke-width:1.0;"/><polygon fill="#181818" points="169.3,302.3069,173.4974,308.1705,180.5243,306.5512,176.3269,300.6876,169.3,302.3069" style="stroke:#181818;stroke-width:1.0;"/><polygon fill="#181818" points="422.98,375.7869,415.2207,369.7211,418.1297,374.5727,413.2781,377.4816,422.98,375.7869" style="stroke:#181818;stroke-width:1.0;"/></g><!--reverse link Turn to Board--><g id="link_Turn_Board"><path codeLine="13" d="M77.09,176.2969 C88.89,176.2969 94.69,176.2969 106.49,176.2969 " fill="none" id="Turn-backto-Board" style="stroke:#181818;stroke-width:1.0;"/><polygon fill="#181818" points="71.09,176.2969,80.09,180.2969,76.09,176.2969,80.09,172.2969,71.09,176.2969" style="stroke:#181818;stroke-width:1.0;"/><text fill="#000000" font-family="sans-serif" font-size="13" lengthAdjust="spacing" textLength="33.0776" x="79.025" y="169.9834">4..21</text></g><!--link Board to Player--><g id="link_Board_Player"><path codeLine="14" d="M179.52,176.2969 C191.29,176.2969 197.06,176.2969 208.83,176.2969 " fill="none" id="Board-to-Player" style="stroke:#181818;stroke-width:1.0;"/><polygon fill="#181818" points="214.83,176.2969,205.83,172.2969,209.83,176.2969,205.83,180.2969,214.83,176.2969" style="stroke:#181818;stroke-width:1.0;"/></g><!--link Disk to HollowSquare--><g id="link_Disk_HollowSquare"><path codeLine="15" d="M782.81,301.1169 C777.28,303.6669 771.52,306.1669 766,308.2969 C693.86,336.1169 614.0941,358.8061 556.9241,373.7861 " fill="none" id="Disk-to-HollowSquare" style="stroke:#181818;stroke-width:1.0;stroke-dasharray:7.0,7.0;"/><polygon fill="#181818" points="551.12,375.3069,560.84,376.895,555.9567,374.0395,558.8122,369.1563,551.12,375.3069" style="stroke:#181818;stroke-width:1.0;"/></g><!--link Disk to RedDisk--><g id="link_Disk_RedDisk"><path codeLine="16" d="M834.3733,318.5265 C845.2033,336.1865 850.6831,345.1222 861.5631,362.8622 " fill="none" id="Disk-RedDisk" style="stroke:#181818;stroke-width:1.0;"/><polygon fill="#181818" points="828.1,308.2969,827.8268,315.5028,834.3733,318.5265,834.6465,311.3206,828.1,308.2969" style="stroke:#181818;stroke-width:1.0;"/><polygon fill="#181818" points="864.7,367.9769,863.4045,358.2136,862.086,363.7146,856.5849,362.3961,864.7,367.9769" style="stroke:#181818;stroke-width:1.0;"/><text fill="#000000" font-family="sans-serif" font-size="13" lengthAdjust="spacing" textLength="16.542" x="843.294" y="357.3038">21</text></g><!--link Disk to BlackDisk--><g id="link_Disk_BlackDisk"><path codeLine="17" d="M793.6267,318.5265 C782.7967,336.1865 777.3169,345.1222 766.4369,362.8622 " fill="none" id="Disk-BlackDisk" style="stroke:#181818;stroke-width:1.0;"/><polygon fill="#181818" points="799.9,308.2969,793.3535,311.3206,793.6267,318.5265,800.1732,315.5028,799.9,308.2969" style="stroke:#181818;stroke-width:1.0;"/><polygon fill="#181818" points="763.3,367.9769,771.4151,362.3961,765.914,363.7146,764.5955,358.2136,763.3,367.9769" style="stroke:#181818;stroke-width:1.0;"/><text fill="#000000" font-family="sans-serif" font-size="13" lengthAdjust="spacing" textLength="16.542" x="748.9079" y="357.3038">21</text></g><!--link Player to Movement--><g id="link_Player_Movement"><path codeLine="19" d="M291.39,176.2969 C302.91,176.2969 308.43,176.2969 319.96,176.2969 " fill="none" id="Player-to-Movement" style="stroke:#181818;stroke-width:1.0;"/><polygon fill="#181818" points="325.96,176.2969,316.96,172.2969,320.96,176.2969,316.96,180.2969,325.96,176.2969" style="stroke:#181818;stroke-width:1.0;"/></g><!--link Movement to Goal--><g id="link_Movement_Goal"><path codeLine="20" d="M432.44,176.2969 C443.88,176.2969 449.32,176.2969 460.76,176.2969 " fill="none" id="Movement-to-Goal" style="stroke:#181818;stroke-width:1.0;"/><polygon fill="#181818" points="466.76,176.2969,457.76,172.2969,461.76,176.2969,457.76,180.2969,466.76,176.2969" style="stroke:#181818;stroke-width:1.0;"/></g><!--reverse link Goal to Diagonal--><g id="link_Goal_Diagonal"><path codeLine="22" d="M450.6095,200.1675 C444.9795,202.7775 455.5,197.8569 450,200.2969 C398.49,223.1169 338.77,247.7869 298.29,264.2569 " fill="none" id="Goal-backto-Diagonal" style="stroke:#181818;stroke-width:1.0;"/><polygon fill="none" points="466.94,192.5969,448.0859,194.724,453.133,205.611,466.94,192.5969" style="stroke:#181818;stroke-width:1.0;"/></g><!--reverse link Goal to Horizontal--><g id="link_Goal_Horizontal"><path codeLine="23" d="M461.0789,212.5548 C442.0889,230.2148 429.16,242.2369 410.08,259.9769 " fill="none" id="Goal-backto-Horizontal" style="stroke:#181818;stroke-width:1.0;"/><polygon fill="none" points="474.26,200.2969,456.9929,208.1611,465.1649,216.9486,474.26,200.2969" style="stroke:#181818;stroke-width:1.0;"/></g><!--reverse link Goal to Vertical--><g id="link_Goal_Vertical"><path codeLine="24" d="M504.773,218.1192 C507.273,235.7792 508.19,242.2369 510.7,259.9769 " fill="none" id="Goal-backto-Vertical" style="stroke:#181818;stroke-width:1.0;"/><polygon fill="none" points="502.25,200.2969,498.8322,218.9602,510.7137,217.2782,502.25,200.2969" style="stroke:#181818;stroke-width:1.0;"/></g><!--link Goal to MovementWinner--><g id="link_Goal_MovementWinner"><path codeLine="25" d="M541.3596,203.559 C570.1896,221.429 597.2007,238.165 627.5207,256.965 " fill="none" id="Goal-MovementWinner" style="stroke:#181818;stroke-width:1.0;"/><polygon fill="#181818" points="531.16,197.2369,534.1524,203.7978,541.3596,203.559,538.3671,196.9981,531.16,197.2369" style="stroke:#181818;stroke-width:1.0;"/><polygon fill="#181818" points="632.62,260.1269,627.0789,251.9846,628.3706,257.492,622.8632,258.7837,632.62,260.1269" style="stroke:#181818;stroke-width:1.0;"/></g><!--link MovementWinner to Disk--><g id="link_MovementWinner_Disk"><path codeLine="26" d="M748.19,284.2969 C759.76,284.2969 765.32,284.2969 776.89,284.2969 " fill="none" id="MovementWinner-to-Disk" style="stroke:#181818;stroke-width:1.0;"/><polygon fill="#181818" points="782.89,284.2969,773.89,280.2969,777.89,284.2969,773.89,288.2969,782.89,284.2969" style="stroke:#181818;stroke-width:1.0;"/></g><!--SRC=[TP5DJyCm38Rl_XLMZfDQYMbY5yHXGsmN9CGGdAFMRD7SMAGfsn0_dgGVj6NR9OdznAzV9zvu9boAjPHvFGF8M9SbhdH1VN8KuIJ9vM2JUrGt2XUYNNxrmbJXC-iJkUit9jEWyc3AFK2jDM2tnxd2pMUb7K6p3Q72HyCNGAXP2bU5FKDhOPP3AzXsIvW-V2oRfMbqybevso5djhl8sX6YIKoZLlfFgoQ3cOBE2-NrK1VGWdMsRoPkbFjEJ_951LaFtQ57Az4C45Uy-sdqmhFfhTYG7wVNuiotM7y6tiXvatNfFrTTitSJ_iV1EEmTHCk_]--></g></svg>