<svg xmlns="http://www.w3.org/2000/svg" xmlns:xlink="http://www.w3.org/1999/xlink" contentStyleType="text/css" height="423px" preserveAspectRatio="none" style="width:395px;height:423px;background:#FFFFFF;" version="1.1" viewBox="0 0 395 423" width="395px" zoomAndPan="magnify"><defs/><g><text fill="#000000" font-family="sans-serif" font-size="14" font-weight="bold" lengthAdjust="spacing" textLength="71.2646" x="154.9395" y="22.9951">Software</text><!--class Software--><g id="elem_Software"><rect codeLine="3" fill="#F1F1F1" height="48" id="Software" rx="2.5" ry="2.5" style="stroke:#181818;stroke-width:0.5;" width="94.2686" x="143" y="260.2969"/><ellipse cx="158" cy="276.2969" fill="#ADD1B2" rx="11" ry="11" style="stroke:#181818;stroke-width:1.0;"/><path d="M160.9688,281.9375 Q160.3906,282.2344 159.75,282.375 Q159.1094,282.5313 158.4063,282.5313 Q155.9063,282.5313 154.5781,280.8906 Q153.2656,279.2344 153.2656,276.1094 Q153.2656,272.9844 154.5781,271.3281 Q155.9063,269.6719 158.4063,269.6719 Q159.1094,269.6719 159.75,269.8281 Q160.4063,269.9844 160.9688,270.2813 L160.9688,273 Q160.3438,272.4219 159.75,272.1563 Q159.1563,271.875 158.5313,271.875 Q157.1875,271.875 156.5,272.9531 Q155.8125,274.0156 155.8125,276.1094 Q155.8125,278.2031 156.5,279.2813 Q157.1875,280.3438 158.5313,280.3438 Q159.1563,280.3438 159.75,280.0781 Q160.3438,279.7969 160.9688,279.2188 L160.9688,281.9375 Z " fill="#000000"/><text fill="#000000" font-family="sans-serif" font-size="14" lengthAdjust="spacing" textLength="62.2686" x="172" y="281.1436">Software</text><line style="stroke:#181818;stroke-width:0.5;" x1="144" x2="236.2686" y1="292.2969" y2="292.2969"/><line style="stroke:#181818;stroke-width:0.5;" x1="144" x2="236.2686" y1="300.2969" y2="300.2969"/></g><!--class Hardware--><g id="elem_Hardware"><rect codeLine="4" fill="#F1F1F1" height="48" id="Hardware" rx="2.5" ry="2.5" style="stroke:#181818;stroke-width:0.5;" width="100.1475" x="192" y="152.2969"/><ellipse cx="207" cy="168.2969" fill="#ADD1B2" rx="11" ry="11" style="stroke:#181818;stroke-width:1.0;"/><path d="M209.9688,173.9375 Q209.3906,174.2344 208.75,174.375 Q208.1094,174.5313 207.4063,174.5313 Q204.9063,174.5313 203.5781,172.8906 Q202.2656,171.2344 202.2656,168.1094 Q202.2656,164.9844 203.5781,163.3281 Q204.9063,161.6719 207.4063,161.6719 Q208.1094,161.6719 208.75,161.8281 Q209.4063,161.9844 209.9688,162.2813 L209.9688,165 Q209.3438,164.4219 208.75,164.1563 Q208.1563,163.875 207.5313,163.875 Q206.1875,163.875 205.5,164.9531 Q204.8125,166.0156 204.8125,168.1094 Q204.8125,170.2031 205.5,171.2813 Q206.1875,172.3438 207.5313,172.3438 Q208.1563,172.3438 208.75,172.0781 Q209.3438,171.7969 209.9688,171.2188 L209.9688,173.9375 Z " fill="#000000"/><text fill="#000000" font-family="sans-serif" font-size="14" lengthAdjust="spacing" textLength="68.1475" x="221" y="173.1436">Hardware</text><line style="stroke:#181818;stroke-width:0.5;" x1="193" x2="291.1475" y1="184.2969" y2="184.2969"/><line style="stroke:#181818;stroke-width:0.5;" x1="193" x2="291.1475" y1="192.2969" y2="192.2969"/></g><!--class Firmware--><g id="elem_Firmware"><rect codeLine="5" fill="#F1F1F1" height="48" id="Firmware" rx="2.5" ry="2.5" style="stroke:#181818;stroke-width:0.5;" width="97.7344" x="7" y="368.2969"/><ellipse cx="22" cy="384.2969" fill="#ADD1B2" rx="11" ry="11" style="stroke:#181818;stroke-width:1.0;"/><path d="M24.9688,389.9375 Q24.3906,390.2344 23.75,390.375 Q23.1094,390.5313 22.4063,390.5313 Q19.9063,390.5313 18.5781,388.8906 Q17.2656,387.2344 17.2656,384.1094 Q17.2656,380.9844 18.5781,379.3281 Q19.9063,377.6719 22.4063,377.6719 Q23.1094,377.6719 23.75,377.8281 Q24.4063,377.9844 24.9688,378.2813 L24.9688,381 Q24.3438,380.4219 23.75,380.1563 Q23.1563,379.875 22.5313,379.875 Q21.1875,379.875 20.5,380.9531 Q19.8125,382.0156 19.8125,384.1094 Q19.8125,386.2031 20.5,387.2813 Q21.1875,388.3438 22.5313,388.3438 Q23.1563,388.3438 23.75,388.0781 Q24.3438,387.7969 24.9688,387.2188 L24.9688,389.9375 Z " fill="#000000"/><text fill="#000000" font-family="sans-serif" font-size="14" lengthAdjust="spacing" textLength="65.7344" x="36" y="389.1436">Firmware</text><line style="stroke:#181818;stroke-width:0.5;" x1="8" x2="103.7344" y1="400.2969" y2="400.2969"/><line style="stroke:#181818;stroke-width:0.5;" x1="8" x2="103.7344" y1="408.2969" y2="408.2969"/></g><!--class Dataware--><g id="elem_Dataware"><rect codeLine="6" fill="#F1F1F1" height="48" id="Dataware" rx="2.5" ry="2.5" style="stroke:#181818;stroke-width:0.5;" width="99.8262" x="140" y="368.2969"/><ellipse cx="155" cy="384.2969" fill="#ADD1B2" rx="11" ry="11" style="stroke:#181818;stroke-width:1.0;"/><path d="M157.9688,389.9375 Q157.3906,390.2344 156.75,390.375 Q156.1094,390.5313 155.4063,390.5313 Q152.9063,390.5313 151.5781,388.8906 Q150.2656,387.2344 150.2656,384.1094 Q150.2656,380.9844 151.5781,379.3281 Q152.9063,377.6719 155.4063,377.6719 Q156.1094,377.6719 156.75,377.8281 Q157.4063,377.9844 157.9688,378.2813 L157.9688,381 Q157.3438,380.4219 156.75,380.1563 Q156.1563,379.875 155.5313,379.875 Q154.1875,379.875 153.5,380.9531 Q152.8125,382.0156 152.8125,384.1094 Q152.8125,386.2031 153.5,387.2813 Q154.1875,388.3438 155.5313,388.3438 Q156.1563,388.3438 156.75,388.0781 Q157.3438,387.7969 157.9688,387.2188 L157.9688,389.9375 Z " fill="#000000"/><text fill="#000000" font-family="sans-serif" font-size="14" lengthAdjust="spacing" textLength="67.8262" x="169" y="389.1436">Dataware</text><line style="stroke:#181818;stroke-width:0.5;" x1="141" x2="238.8262" y1="400.2969" y2="400.2969"/><line style="stroke:#181818;stroke-width:0.5;" x1="141" x2="238.8262" y1="408.2969" y2="408.2969"/></g><!--class Middleware--><g id="elem_Middleware"><rect codeLine="7" fill="#F1F1F1" height="48" id="Middleware" rx="2.5" ry="2.5" style="stroke:#181818;stroke-width:0.5;" width="112.6436" x="275.5" y="368.2969"/><ellipse cx="290.5" cy="384.2969" fill="#ADD1B2" rx="11" ry="11" style="stroke:#181818;stroke-width:1.0;"/><path d="M293.4688,389.9375 Q292.8906,390.2344 292.25,390.375 Q291.6094,390.5313 290.9063,390.5313 Q288.4063,390.5313 287.0781,388.8906 Q285.7656,387.2344 285.7656,384.1094 Q285.7656,380.9844 287.0781,379.3281 Q288.4063,377.6719 290.9063,377.6719 Q291.6094,377.6719 292.25,377.8281 Q292.9063,377.9844 293.4688,378.2813 L293.4688,381 Q292.8438,380.4219 292.25,380.1563 Q291.6563,379.875 291.0313,379.875 Q289.6875,379.875 289,380.9531 Q288.3125,382.0156 288.3125,384.1094 Q288.3125,386.2031 289,387.2813 Q289.6875,388.3438 291.0313,388.3438 Q291.6563,388.3438 292.25,388.0781 Q292.8438,387.7969 293.4688,387.2188 L293.4688,389.9375 Z " fill="#000000"/><text fill="#000000" font-family="sans-serif" font-size="14" lengthAdjust="spacing" textLength="80.6436" x="304.5" y="389.1436">Middleware</text><line style="stroke:#181818;stroke-width:0.5;" x1="276.5" x2="387.1436" y1="400.2969" y2="400.2969"/><line style="stroke:#181818;stroke-width:0.5;" x1="276.5" x2="387.1436" y1="408.2969" y2="408.2969"/></g><!--class Peopleware--><g id="elem_Peopleware"><rect codeLine="8" fill="#F1F1F1" height="48" id="Peopleware" rx="2.5" ry="2.5" style="stroke:#181818;stroke-width:0.5;" width="113.4092" x="133.5" y="44.2969"/><ellipse cx="148.5" cy="60.2969" fill="#ADD1B2" rx="11" ry="11" style="stroke:#181818;stroke-width:1.0;"/><path d="M151.4688,65.9375 Q150.8906,66.2344 150.25,66.375 Q149.6094,66.5313 148.9063,66.5313 Q146.4063,66.5313 145.0781,64.8906 Q143.7656,63.2344 143.7656,60.1094 Q143.7656,56.9844 145.0781,55.3281 Q146.4063,53.6719 148.9063,53.6719 Q149.6094,53.6719 150.25,53.8281 Q150.9063,53.9844 151.4688,54.2813 L151.4688,57 Q150.8438,56.4219 150.25,56.1563 Q149.6563,55.875 149.0313,55.875 Q147.6875,55.875 147,56.9531 Q146.3125,58.0156 146.3125,60.1094 Q146.3125,62.2031 147,63.2813 Q147.6875,64.3438 149.0313,64.3438 Q149.6563,64.3438 150.25,64.0781 Q150.8438,63.7969 151.4688,63.2188 L151.4688,65.9375 Z " fill="#000000"/><text fill="#000000" font-family="sans-serif" font-size="14" lengthAdjust="spacing" textLength="81.4092" x="162.5" y="65.1436">Peopleware</text><line style="stroke:#181818;stroke-width:0.5;" x1="134.5" x2="245.9092" y1="76.2969" y2="76.2969"/><line style="stroke:#181818;stroke-width:0.5;" x1="134.5" x2="245.9092" y1="84.2969" y2="84.2969"/></g><!--link Peopleware to Hardware--><g id="link_Peopleware_Hardware"><path codeLine="10" d="M201.28,92.2969 C209.95,109.9569 219.2181,128.8498 227.9181,146.5898 " fill="none" id="Peopleware-to-Hardware" style="stroke:#181818;stroke-width:1.0;"/><polygon fill="#181818" points="230.56,151.9769,230.1885,142.135,228.3584,147.4877,223.0058,145.6576,230.56,151.9769" style="stroke:#181818;stroke-width:1.0;"/></g><!--link Peopleware to Software--><g id="link_Peopleware_Software"><path codeLine="11" d="M184.68,92.3969 C181.14,108.9669 176.83,131.8769 175,152.2969 C173.1,173.5469 173.1,179.0469 175,200.2969 C176.83,220.7169 179.8865,237.7593 183.4265,254.3293 " fill="none" id="Peopleware-to-Software" style="stroke:#181818;stroke-width:1.0;"/><polygon fill="#181818" points="184.68,260.1969,186.7114,250.5598,183.6354,255.3072,178.888,252.2312,184.68,260.1969" style="stroke:#181818;stroke-width:1.0;"/></g><!--link Hardware to Software--><g id="link_Hardware_Software"><path codeLine="12" d="M225.4317,211.0688 C216.7617,228.7288 212.7819,236.8498 204.0819,254.5898 " fill="none" id="Hardware-Software" style="stroke:#181818;stroke-width:1.0;"/><polygon fill="none" points="230.72,200.2969,224.4852,203.92,225.4317,211.0688,231.6665,207.4456,230.72,200.2969" style="stroke:#181818;stroke-width:1.0;"/><polygon fill="#181818" points="201.44,259.9769,208.9942,253.6576,203.6416,255.4877,201.8115,250.135,201.44,259.9769" style="stroke:#181818;stroke-width:1.0;"/></g><!--reverse link Software to Firmware--><g id="link_Software_Firmware"><path codeLine="13" d="M146.8041,319.4656 C124.4841,337.1256 107.91,350.2369 85.48,367.9769 " fill="none" id="Software-backto-Firmware" style="stroke:#181818;stroke-width:1.0;"/><polygon fill="none" points="160.92,308.2969,143.0812,314.7603,150.527,324.1709,160.92,308.2969" style="stroke:#181818;stroke-width:1.0;"/></g><!--reverse link Software to Dataware--><g id="link_Software_Dataware"><path codeLine="14" d="M190,326.2969 C190,343.9569 190,350.2369 190,367.9769 " fill="none" id="Software-backto-Dataware" style="stroke:#181818;stroke-width:1.0;"/><polygon fill="none" points="190,308.2969,184,326.2969,196,326.2969,190,308.2969" style="stroke:#181818;stroke-width:1.0;"/></g><!--reverse link Software to Middleware--><g id="link_Software_Middleware"><path codeLine="15" d="M235.2348,319.0637 C258.8948,336.7237 277,350.2369 300.76,367.9769 " fill="none" id="Software-backto-Middleware" style="stroke:#181818;stroke-width:1.0;"/><polygon fill="none" points="220.81,308.2969,231.6459,323.872,238.8238,314.2554,220.81,308.2969" style="stroke:#181818;stroke-width:1.0;"/></g><!--SRC=[AyaioKbL2CvFAobFB4hbuahEIImkHl0XN8_4eXGahbjcKIuIroMn9169wvkPafAJYYGGa9fV01NWGh0LT7Nj40QZYSFjXobGo4SHXZ4KR6fqTH7kGHM6kmjL6E4-0000]--></g></svg>