<svg xmlns="http://www.w3.org/2000/svg" xmlns:xlink="http://www.w3.org/1999/xlink" contentStyleType="text/css" height="855px" preserveAspectRatio="none" style="width:935px;height:855px;background:#FFFFFF;" version="1.1" viewBox="0 0 935 855" width="935px" zoomAndPan="magnify"><defs/><g><text fill="#000000" font-family="sans-serif" font-size="14" font-weight="bold" lengthAdjust="spacing" textLength="154.7041" x="383.3929" y="22.9951">ModeloRestaurante</text><!--class Restaurante--><g id="elem_Restaurante"><rect codeLine="3" fill="#F1F1F1" height="48" id="Restaurante" rx="2.5" ry="2.5" style="stroke:#181818;stroke-width:0.5;" width="117.8867" x="361" y="44.2969"/><ellipse cx="376" cy="60.2969" fill="#ADD1B2" rx="11" ry="11" style="stroke:#181818;stroke-width:1.0;"/><path d="M378.9688,65.9375 Q378.3906,66.2344 377.75,66.375 Q377.1094,66.5313 376.4063,66.5313 Q373.9063,66.5313 372.5781,64.8906 Q371.2656,63.2344 371.2656,60.1094 Q371.2656,56.9844 372.5781,55.3281 Q373.9063,53.6719 376.4063,53.6719 Q377.1094,53.6719 377.75,53.8281 Q378.4063,53.9844 378.9688,54.2813 L378.9688,57 Q378.3438,56.4219 377.75,56.1563 Q377.1563,55.875 376.5313,55.875 Q375.1875,55.875 374.5,56.9531 Q373.8125,58.0156 373.8125,60.1094 Q373.8125,62.2031 374.5,63.2813 Q375.1875,64.3438 376.5313,64.3438 Q377.1563,64.3438 377.75,64.0781 Q378.3438,63.7969 378.9688,63.2188 L378.9688,65.9375 Z " fill="#000000"/><text fill="#000000" font-family="sans-serif" font-size="14" lengthAdjust="spacing" textLength="85.8867" x="390" y="65.1436">Restaurante</text><line style="stroke:#181818;stroke-width:0.5;" x1="362" x2="477.8867" y1="76.2969" y2="76.2969"/><line style="stroke:#181818;stroke-width:0.5;" x1="362" x2="477.8867" y1="84.2969" y2="84.2969"/></g><!--class Comensal--><g id="elem_Comensal"><rect codeLine="4" fill="#F1F1F1" height="48" id="Comensal" rx="2.5" ry="2.5" style="stroke:#181818;stroke-width:0.5;" width="101.2275" x="168.5" y="260.2969"/><ellipse cx="183.5" cy="276.2969" fill="#ADD1B2" rx="11" ry="11" style="stroke:#181818;stroke-width:1.0;"/><path d="M186.4688,281.9375 Q185.8906,282.2344 185.25,282.375 Q184.6094,282.5313 183.9063,282.5313 Q181.4063,282.5313 180.0781,280.8906 Q178.7656,279.2344 178.7656,276.1094 Q178.7656,272.9844 180.0781,271.3281 Q181.4063,269.6719 183.9063,269.6719 Q184.6094,269.6719 185.25,269.8281 Q185.9063,269.9844 186.4688,270.2813 L186.4688,273 Q185.8438,272.4219 185.25,272.1563 Q184.6563,271.875 184.0313,271.875 Q182.6875,271.875 182,272.9531 Q181.3125,274.0156 181.3125,276.1094 Q181.3125,278.2031 182,279.2813 Q182.6875,280.3438 184.0313,280.3438 Q184.6563,280.3438 185.25,280.0781 Q185.8438,279.7969 186.4688,279.2188 L186.4688,281.9375 Z " fill="#000000"/><text fill="#000000" font-family="sans-serif" font-size="14" lengthAdjust="spacing" textLength="69.2275" x="197.5" y="281.1436">Comensal</text><line style="stroke:#181818;stroke-width:0.5;" x1="169.5" x2="268.7275" y1="292.2969" y2="292.2969"/><line style="stroke:#181818;stroke-width:0.5;" x1="169.5" x2="268.7275" y1="300.2969" y2="300.2969"/></g><!--class Terraza--><g id="elem_Terraza"><rect codeLine="5" fill="#F1F1F1" height="48" id="Terraza" rx="2.5" ry="2.5" style="stroke:#181818;stroke-width:0.5;" width="85.1836" x="176.5" y="152.2969"/><ellipse cx="191.5" cy="168.2969" fill="#ADD1B2" rx="11" ry="11" style="stroke:#181818;stroke-width:1.0;"/><path d="M194.4688,173.9375 Q193.8906,174.2344 193.25,174.375 Q192.6094,174.5313 191.9063,174.5313 Q189.4063,174.5313 188.0781,172.8906 Q186.7656,171.2344 186.7656,168.1094 Q186.7656,164.9844 188.0781,163.3281 Q189.4063,161.6719 191.9063,161.6719 Q192.6094,161.6719 193.25,161.8281 Q193.9063,161.9844 194.4688,162.2813 L194.4688,165 Q193.8438,164.4219 193.25,164.1563 Q192.6563,163.875 192.0313,163.875 Q190.6875,163.875 190,164.9531 Q189.3125,166.0156 189.3125,168.1094 Q189.3125,170.2031 190,171.2813 Q190.6875,172.3438 192.0313,172.3438 Q192.6563,172.3438 193.25,172.0781 Q193.8438,171.7969 194.4688,171.2188 L194.4688,173.9375 Z " fill="#000000"/><text fill="#000000" font-family="sans-serif" font-size="14" lengthAdjust="spacing" textLength="53.1836" x="205.5" y="173.1436">Terraza</text><line style="stroke:#181818;stroke-width:0.5;" x1="177.5" x2="260.6836" y1="184.2969" y2="184.2969"/><line style="stroke:#181818;stroke-width:0.5;" x1="177.5" x2="260.6836" y1="192.2969" y2="192.2969"/></g><!--class Comedor--><g id="elem_Comedor"><rect codeLine="6" fill="#F1F1F1" height="48" id="Comedor" rx="2.5" ry="2.5" style="stroke:#181818;stroke-width:0.5;" width="95.7998" x="297" y="152.2969"/><ellipse cx="312" cy="168.2969" fill="#ADD1B2" rx="11" ry="11" style="stroke:#181818;stroke-width:1.0;"/><path d="M314.9688,173.9375 Q314.3906,174.2344 313.75,174.375 Q313.1094,174.5313 312.4063,174.5313 Q309.9063,174.5313 308.5781,172.8906 Q307.2656,171.2344 307.2656,168.1094 Q307.2656,164.9844 308.5781,163.3281 Q309.9063,161.6719 312.4063,161.6719 Q313.1094,161.6719 313.75,161.8281 Q314.4063,161.9844 314.9688,162.2813 L314.9688,165 Q314.3438,164.4219 313.75,164.1563 Q313.1563,163.875 312.5313,163.875 Q311.1875,163.875 310.5,164.9531 Q309.8125,166.0156 309.8125,168.1094 Q309.8125,170.2031 310.5,171.2813 Q311.1875,172.3438 312.5313,172.3438 Q313.1563,172.3438 313.75,172.0781 Q314.3438,171.7969 314.9688,171.2188 L314.9688,173.9375 Z " fill="#000000"/><text fill="#000000" font-family="sans-serif" font-size="14" lengthAdjust="spacing" textLength="63.7998" x="326" y="173.1436">Comedor</text><line style="stroke:#181818;stroke-width:0.5;" x1="298" x2="391.7998" y1="184.2969" y2="184.2969"/><line style="stroke:#181818;stroke-width:0.5;" x1="298" x2="391.7998" y1="192.2969" y2="192.2969"/></g><!--class Desayuno--><g id="elem_Desayuno"><rect codeLine="7" fill="#F1F1F1" height="48" id="Desayuno" rx="2.5" ry="2.5" style="stroke:#181818;stroke-width:0.5;" width="101.8633" x="196" y="692.2969"/><ellipse cx="211" cy="708.2969" fill="#ADD1B2" rx="11" ry="11" style="stroke:#181818;stroke-width:1.0;"/><path d="M213.9688,713.9375 Q213.3906,714.2344 212.75,714.375 Q212.1094,714.5313 211.4063,714.5313 Q208.9063,714.5313 207.5781,712.8906 Q206.2656,711.2344 206.2656,708.1094 Q206.2656,704.9844 207.5781,703.3281 Q208.9063,701.6719 211.4063,701.6719 Q212.1094,701.6719 212.75,701.8281 Q213.4063,701.9844 213.9688,702.2813 L213.9688,705 Q213.3438,704.4219 212.75,704.1563 Q212.1563,703.875 211.5313,703.875 Q210.1875,703.875 209.5,704.9531 Q208.8125,706.0156 208.8125,708.1094 Q208.8125,710.2031 209.5,711.2813 Q210.1875,712.3438 211.5313,712.3438 Q212.1563,712.3438 212.75,712.0781 Q213.3438,711.7969 213.9688,711.2188 L213.9688,713.9375 Z " fill="#000000"/><text fill="#000000" font-family="sans-serif" font-size="14" lengthAdjust="spacing" textLength="69.8633" x="225" y="713.1436">Desayuno</text><line style="stroke:#181818;stroke-width:0.5;" x1="197" x2="296.8633" y1="724.2969" y2="724.2969"/><line style="stroke:#181818;stroke-width:0.5;" x1="197" x2="296.8633" y1="732.2969" y2="732.2969"/></g><!--class Cena--><g id="elem_Cena"><rect codeLine="8" fill="#F1F1F1" height="48" id="Cena" rx="2.5" ry="2.5" style="stroke:#181818;stroke-width:0.5;" width="67.8408" x="333" y="692.2969"/><ellipse cx="348" cy="708.2969" fill="#ADD1B2" rx="11" ry="11" style="stroke:#181818;stroke-width:1.0;"/><path d="M350.9688,713.9375 Q350.3906,714.2344 349.75,714.375 Q349.1094,714.5313 348.4063,714.5313 Q345.9063,714.5313 344.5781,712.8906 Q343.2656,711.2344 343.2656,708.1094 Q343.2656,704.9844 344.5781,703.3281 Q345.9063,701.6719 348.4063,701.6719 Q349.1094,701.6719 349.75,701.8281 Q350.4063,701.9844 350.9688,702.2813 L350.9688,705 Q350.3438,704.4219 349.75,704.1563 Q349.1563,703.875 348.5313,703.875 Q347.1875,703.875 346.5,704.9531 Q345.8125,706.0156 345.8125,708.1094 Q345.8125,710.2031 346.5,711.2813 Q347.1875,712.3438 348.5313,712.3438 Q349.1563,712.3438 349.75,712.0781 Q350.3438,711.7969 350.9688,711.2188 L350.9688,713.9375 Z " fill="#000000"/><text fill="#000000" font-family="sans-serif" font-size="14" lengthAdjust="spacing" textLength="35.8408" x="362" y="713.1436">Cena</text><line style="stroke:#181818;stroke-width:0.5;" x1="334" x2="399.8408" y1="724.2969" y2="724.2969"/><line style="stroke:#181818;stroke-width:0.5;" x1="334" x2="399.8408" y1="732.2969" y2="732.2969"/></g><!--class Comida--><g id="elem_Comida"><rect codeLine="9" fill="#F1F1F1" height="48" id="Comida" rx="2.5" ry="2.5" style="stroke:#181818;stroke-width:0.5;" width="85.334" x="436.5" y="692.2969"/><ellipse cx="451.5" cy="708.2969" fill="#ADD1B2" rx="11" ry="11" style="stroke:#181818;stroke-width:1.0;"/><path d="M454.4688,713.9375 Q453.8906,714.2344 453.25,714.375 Q452.6094,714.5313 451.9063,714.5313 Q449.4063,714.5313 448.0781,712.8906 Q446.7656,711.2344 446.7656,708.1094 Q446.7656,704.9844 448.0781,703.3281 Q449.4063,701.6719 451.9063,701.6719 Q452.6094,701.6719 453.25,701.8281 Q453.9063,701.9844 454.4688,702.2813 L454.4688,705 Q453.8438,704.4219 453.25,704.1563 Q452.6563,703.875 452.0313,703.875 Q450.6875,703.875 450,704.9531 Q449.3125,706.0156 449.3125,708.1094 Q449.3125,710.2031 450,711.2813 Q450.6875,712.3438 452.0313,712.3438 Q452.6563,712.3438 453.25,712.0781 Q453.8438,711.7969 454.4688,711.2188 L454.4688,713.9375 Z " fill="#000000"/><text fill="#000000" font-family="sans-serif" font-size="14" lengthAdjust="spacing" textLength="53.334" x="465.5" y="713.1436">Comida</text><line style="stroke:#181818;stroke-width:0.5;" x1="437.5" x2="520.834" y1="724.2969" y2="724.2969"/><line style="stroke:#181818;stroke-width:0.5;" x1="437.5" x2="520.834" y1="732.2969" y2="732.2969"/></g><!--class Men?--><g id="elem_Men&#250;"><rect codeLine="10" fill="#F1F1F1" height="48" id="Men&#250;" rx="2.5" ry="2.5" style="stroke:#181818;stroke-width:0.5;" width="70.4385" x="319" y="584.2969"/><ellipse cx="334" cy="600.2969" fill="#ADD1B2" rx="11" ry="11" style="stroke:#181818;stroke-width:1.0;"/><path d="M336.9688,605.9375 Q336.3906,606.2344 335.75,606.375 Q335.1094,606.5313 334.4063,606.5313 Q331.9063,606.5313 330.5781,604.8906 Q329.2656,603.2344 329.2656,600.1094 Q329.2656,596.9844 330.5781,595.3281 Q331.9063,593.6719 334.4063,593.6719 Q335.1094,593.6719 335.75,593.8281 Q336.4063,593.9844 336.9688,594.2813 L336.9688,597 Q336.3438,596.4219 335.75,596.1563 Q335.1563,595.875 334.5313,595.875 Q333.1875,595.875 332.5,596.9531 Q331.8125,598.0156 331.8125,600.1094 Q331.8125,602.2031 332.5,603.2813 Q333.1875,604.3438 334.5313,604.3438 Q335.1563,604.3438 335.75,604.0781 Q336.3438,603.7969 336.9688,603.2188 L336.9688,605.9375 Z " fill="#000000"/><text fill="#000000" font-family="sans-serif" font-size="14" lengthAdjust="spacing" textLength="38.4385" x="348" y="605.1436">Men&#250;</text><line style="stroke:#181818;stroke-width:0.5;" x1="320" x2="388.4385" y1="616.2969" y2="616.2969"/><line style="stroke:#181818;stroke-width:0.5;" x1="320" x2="388.4385" y1="624.2969" y2="624.2969"/></g><!--class Carta--><g id="elem_Carta"><rect codeLine="11" fill="#F1F1F1" height="48" id="Carta" rx="2.5" ry="2.5" style="stroke:#181818;stroke-width:0.5;" width="70.1787" x="207" y="584.2969"/><ellipse cx="222" cy="600.2969" fill="#ADD1B2" rx="11" ry="11" style="stroke:#181818;stroke-width:1.0;"/><path d="M224.9688,605.9375 Q224.3906,606.2344 223.75,606.375 Q223.1094,606.5313 222.4063,606.5313 Q219.9063,606.5313 218.5781,604.8906 Q217.2656,603.2344 217.2656,600.1094 Q217.2656,596.9844 218.5781,595.3281 Q219.9063,593.6719 222.4063,593.6719 Q223.1094,593.6719 223.75,593.8281 Q224.4063,593.9844 224.9688,594.2813 L224.9688,597 Q224.3438,596.4219 223.75,596.1563 Q223.1563,595.875 222.5313,595.875 Q221.1875,595.875 220.5,596.9531 Q219.8125,598.0156 219.8125,600.1094 Q219.8125,602.2031 220.5,603.2813 Q221.1875,604.3438 222.5313,604.3438 Q223.1563,604.3438 223.75,604.0781 Q224.3438,603.7969 224.9688,603.2188 L224.9688,605.9375 Z " fill="#000000"/><text fill="#000000" font-family="sans-serif" font-size="14" lengthAdjust="spacing" textLength="38.1787" x="236" y="605.1436">Carta</text><line style="stroke:#181818;stroke-width:0.5;" x1="208" x2="276.1787" y1="616.2969" y2="616.2969"/><line style="stroke:#181818;stroke-width:0.5;" x1="208" x2="276.1787" y1="624.2969" y2="624.2969"/></g><!--class Plato--><g id="elem_Plato"><rect codeLine="12" fill="#F1F1F1" height="48" id="Plato" rx="2.5" ry="2.5" style="stroke:#181818;stroke-width:0.5;" width="66.9658" x="97.5" y="584.2969"/><ellipse cx="112.5" cy="600.2969" fill="#ADD1B2" rx="11" ry="11" style="stroke:#181818;stroke-width:1.0;"/><path d="M115.4688,605.9375 Q114.8906,606.2344 114.25,606.375 Q113.6094,606.5313 112.9063,606.5313 Q110.4063,606.5313 109.0781,604.8906 Q107.7656,603.2344 107.7656,600.1094 Q107.7656,596.9844 109.0781,595.3281 Q110.4063,593.6719 112.9063,593.6719 Q113.6094,593.6719 114.25,593.8281 Q114.9063,593.9844 115.4688,594.2813 L115.4688,597 Q114.8438,596.4219 114.25,596.1563 Q113.6563,595.875 113.0313,595.875 Q111.6875,595.875 111,596.9531 Q110.3125,598.0156 110.3125,600.1094 Q110.3125,602.2031 111,603.2813 Q111.6875,604.3438 113.0313,604.3438 Q113.6563,604.3438 114.25,604.0781 Q114.8438,603.7969 115.4688,603.2188 L115.4688,605.9375 Z " fill="#000000"/><text fill="#000000" font-family="sans-serif" font-size="14" lengthAdjust="spacing" textLength="34.9658" x="126.5" y="605.1436">Plato</text><line style="stroke:#181818;stroke-width:0.5;" x1="98.5" x2="163.4658" y1="616.2969" y2="616.2969"/><line style="stroke:#181818;stroke-width:0.5;" x1="98.5" x2="163.4658" y1="624.2969" y2="624.2969"/></g><!--class Ingrediente--><g id="elem_Ingrediente"><rect codeLine="13" fill="#F1F1F1" height="48" id="Ingrediente" rx="2.5" ry="2.5" style="stroke:#181818;stroke-width:0.5;" width="112.623" x="47.5" y="692.2969"/><ellipse cx="62.5" cy="708.2969" fill="#ADD1B2" rx="11" ry="11" style="stroke:#181818;stroke-width:1.0;"/><path d="M65.4688,713.9375 Q64.8906,714.2344 64.25,714.375 Q63.6094,714.5313 62.9063,714.5313 Q60.4063,714.5313 59.0781,712.8906 Q57.7656,711.2344 57.7656,708.1094 Q57.7656,704.9844 59.0781,703.3281 Q60.4063,701.6719 62.9063,701.6719 Q63.6094,701.6719 64.25,701.8281 Q64.9063,701.9844 65.4688,702.2813 L65.4688,705 Q64.8438,704.4219 64.25,704.1563 Q63.6563,703.875 63.0313,703.875 Q61.6875,703.875 61,704.9531 Q60.3125,706.0156 60.3125,708.1094 Q60.3125,710.2031 61,711.2813 Q61.6875,712.3438 63.0313,712.3438 Q63.6563,712.3438 64.25,712.0781 Q64.8438,711.7969 65.4688,711.2188 L65.4688,713.9375 Z " fill="#000000"/><text fill="#000000" font-family="sans-serif" font-size="14" lengthAdjust="spacing" textLength="80.623" x="76.5" y="713.1436">Ingrediente</text><line style="stroke:#181818;stroke-width:0.5;" x1="48.5" x2="159.123" y1="724.2969" y2="724.2969"/><line style="stroke:#181818;stroke-width:0.5;" x1="48.5" x2="159.123" y1="732.2969" y2="732.2969"/></g><!--class Cebolla--><g id="elem_Cebolla"><rect codeLine="14" fill="#F1F1F1" height="48" id="Cebolla" rx="2.5" ry="2.5" style="stroke:#181818;stroke-width:0.5;" width="84.1992" x="7" y="800.2969"/><ellipse cx="22" cy="816.2969" fill="#ADD1B2" rx="11" ry="11" style="stroke:#181818;stroke-width:1.0;"/><path d="M24.9688,821.9375 Q24.3906,822.2344 23.75,822.375 Q23.1094,822.5313 22.4063,822.5313 Q19.9063,822.5313 18.5781,820.8906 Q17.2656,819.2344 17.2656,816.1094 Q17.2656,812.9844 18.5781,811.3281 Q19.9063,809.6719 22.4063,809.6719 Q23.1094,809.6719 23.75,809.8281 Q24.4063,809.9844 24.9688,810.2813 L24.9688,813 Q24.3438,812.4219 23.75,812.1563 Q23.1563,811.875 22.5313,811.875 Q21.1875,811.875 20.5,812.9531 Q19.8125,814.0156 19.8125,816.1094 Q19.8125,818.2031 20.5,819.2813 Q21.1875,820.3438 22.5313,820.3438 Q23.1563,820.3438 23.75,820.0781 Q24.3438,819.7969 24.9688,819.2188 L24.9688,821.9375 Z " fill="#000000"/><text fill="#000000" font-family="sans-serif" font-size="14" lengthAdjust="spacing" textLength="52.1992" x="36" y="821.1436">Cebolla</text><line style="stroke:#181818;stroke-width:0.5;" x1="8" x2="90.1992" y1="832.2969" y2="832.2969"/><line style="stroke:#181818;stroke-width:0.5;" x1="8" x2="90.1992" y1="840.2969" y2="840.2969"/></g><!--class Trigo--><g id="elem_Trigo"><rect codeLine="15" fill="#F1F1F1" height="48" id="Trigo" rx="2.5" ry="2.5" style="stroke:#181818;stroke-width:0.5;" width="67.6494" x="126" y="800.2969"/><ellipse cx="141" cy="816.2969" fill="#ADD1B2" rx="11" ry="11" style="stroke:#181818;stroke-width:1.0;"/><path d="M143.9688,821.9375 Q143.3906,822.2344 142.75,822.375 Q142.1094,822.5313 141.4063,822.5313 Q138.9063,822.5313 137.5781,820.8906 Q136.2656,819.2344 136.2656,816.1094 Q136.2656,812.9844 137.5781,811.3281 Q138.9063,809.6719 141.4063,809.6719 Q142.1094,809.6719 142.75,809.8281 Q143.4063,809.9844 143.9688,810.2813 L143.9688,813 Q143.3438,812.4219 142.75,812.1563 Q142.1563,811.875 141.5313,811.875 Q140.1875,811.875 139.5,812.9531 Q138.8125,814.0156 138.8125,816.1094 Q138.8125,818.2031 139.5,819.2813 Q140.1875,820.3438 141.5313,820.3438 Q142.1563,820.3438 142.75,820.0781 Q143.3438,819.7969 143.9688,819.2188 L143.9688,821.9375 Z " fill="#000000"/><text fill="#000000" font-family="sans-serif" font-size="14" lengthAdjust="spacing" textLength="35.6494" x="155" y="821.1436">Trigo</text><line style="stroke:#181818;stroke-width:0.5;" x1="127" x2="192.6494" y1="832.2969" y2="832.2969"/><line style="stroke:#181818;stroke-width:0.5;" x1="127" x2="192.6494" y1="840.2969" y2="840.2969"/></g><!--class Envio--><g id="elem_Envio"><rect codeLine="16" fill="#F1F1F1" height="48" id="Envio" rx="2.5" ry="2.5" style="stroke:#181818;stroke-width:0.5;" width="70.459" x="96" y="476.2969"/><ellipse cx="111" cy="492.2969" fill="#ADD1B2" rx="11" ry="11" style="stroke:#181818;stroke-width:1.0;"/><path d="M113.9688,497.9375 Q113.3906,498.2344 112.75,498.375 Q112.1094,498.5313 111.4063,498.5313 Q108.9063,498.5313 107.5781,496.8906 Q106.2656,495.2344 106.2656,492.1094 Q106.2656,488.9844 107.5781,487.3281 Q108.9063,485.6719 111.4063,485.6719 Q112.1094,485.6719 112.75,485.8281 Q113.4063,485.9844 113.9688,486.2813 L113.9688,489 Q113.3438,488.4219 112.75,488.1563 Q112.1563,487.875 111.5313,487.875 Q110.1875,487.875 109.5,488.9531 Q108.8125,490.0156 108.8125,492.1094 Q108.8125,494.2031 109.5,495.2813 Q110.1875,496.3438 111.5313,496.3438 Q112.1563,496.3438 112.75,496.0781 Q113.3438,495.7969 113.9688,495.2188 L113.9688,497.9375 Z " fill="#000000"/><text fill="#000000" font-family="sans-serif" font-size="14" lengthAdjust="spacing" textLength="38.459" x="125" y="497.1436">Envio</text><line style="stroke:#181818;stroke-width:0.5;" x1="97" x2="165.459" y1="508.2969" y2="508.2969"/><line style="stroke:#181818;stroke-width:0.5;" x1="97" x2="165.459" y1="516.2969" y2="516.2969"/></g><!--class Cr?tico--><g id="elem_Cr&#237;tico"><rect codeLine="17" fill="#F1F1F1" height="48" id="Cr&#237;tico" rx="2.5" ry="2.5" style="stroke:#181818;stroke-width:0.5;" width="77.0625" x="88.5" y="368.2969"/><ellipse cx="103.5" cy="384.2969" fill="#ADD1B2" rx="11" ry="11" style="stroke:#181818;stroke-width:1.0;"/><path d="M106.4688,389.9375 Q105.8906,390.2344 105.25,390.375 Q104.6094,390.5313 103.9063,390.5313 Q101.4063,390.5313 100.0781,388.8906 Q98.7656,387.2344 98.7656,384.1094 Q98.7656,380.9844 100.0781,379.3281 Q101.4063,377.6719 103.9063,377.6719 Q104.6094,377.6719 105.25,377.8281 Q105.9063,377.9844 106.4688,378.2813 L106.4688,381 Q105.8438,380.4219 105.25,380.1563 Q104.6563,379.875 104.0313,379.875 Q102.6875,379.875 102,380.9531 Q101.3125,382.0156 101.3125,384.1094 Q101.3125,386.2031 102,387.2813 Q102.6875,388.3438 104.0313,388.3438 Q104.6563,388.3438 105.25,388.0781 Q105.8438,387.7969 106.4688,387.2188 L106.4688,389.9375 Z " fill="#000000"/><text fill="#000000" font-family="sans-serif" font-size="14" lengthAdjust="spacing" textLength="45.0625" x="117.5" y="389.1436">Cr&#237;tico</text><line style="stroke:#181818;stroke-width:0.5;" x1="89.5" x2="164.5625" y1="400.2969" y2="400.2969"/><line style="stroke:#181818;stroke-width:0.5;" x1="89.5" x2="164.5625" y1="408.2969" y2="408.2969"/></g><!--class Camarero--><g id="elem_Camarero"><rect codeLine="18" fill="#F1F1F1" height="48" id="Camarero" rx="2.5" ry="2.5" style="stroke:#181818;stroke-width:0.5;" width="101.2617" x="503.5" y="368.2969"/><ellipse cx="518.5" cy="384.2969" fill="#ADD1B2" rx="11" ry="11" style="stroke:#181818;stroke-width:1.0;"/><path d="M521.4688,389.9375 Q520.8906,390.2344 520.25,390.375 Q519.6094,390.5313 518.9063,390.5313 Q516.4063,390.5313 515.0781,388.8906 Q513.7656,387.2344 513.7656,384.1094 Q513.7656,380.9844 515.0781,379.3281 Q516.4063,377.6719 518.9063,377.6719 Q519.6094,377.6719 520.25,377.8281 Q520.9063,377.9844 521.4688,378.2813 L521.4688,381 Q520.8438,380.4219 520.25,380.1563 Q519.6563,379.875 519.0313,379.875 Q517.6875,379.875 517,380.9531 Q516.3125,382.0156 516.3125,384.1094 Q516.3125,386.2031 517,387.2813 Q517.6875,388.3438 519.0313,388.3438 Q519.6563,388.3438 520.25,388.0781 Q520.8438,387.7969 521.4688,387.2188 L521.4688,389.9375 Z " fill="#000000"/><text fill="#000000" font-family="sans-serif" font-size="14" lengthAdjust="spacing" textLength="69.2617" x="532.5" y="389.1436">Camarero</text><line style="stroke:#181818;stroke-width:0.5;" x1="504.5" x2="603.7617" y1="400.2969" y2="400.2969"/><line style="stroke:#181818;stroke-width:0.5;" x1="504.5" x2="603.7617" y1="408.2969" y2="408.2969"/></g><!--class Cocinero--><g id="elem_Cocinero"><rect codeLine="19" fill="#F1F1F1" height="48" id="Cocinero" rx="2.5" ry="2.5" style="stroke:#181818;stroke-width:0.5;" width="93.7354" x="640" y="368.2969"/><ellipse cx="655" cy="384.2969" fill="#ADD1B2" rx="11" ry="11" style="stroke:#181818;stroke-width:1.0;"/><path d="M657.9688,389.9375 Q657.3906,390.2344 656.75,390.375 Q656.1094,390.5313 655.4063,390.5313 Q652.9063,390.5313 651.5781,388.8906 Q650.2656,387.2344 650.2656,384.1094 Q650.2656,380.9844 651.5781,379.3281 Q652.9063,377.6719 655.4063,377.6719 Q656.1094,377.6719 656.75,377.8281 Q657.4063,377.9844 657.9688,378.2813 L657.9688,381 Q657.3438,380.4219 656.75,380.1563 Q656.1563,379.875 655.5313,379.875 Q654.1875,379.875 653.5,380.9531 Q652.8125,382.0156 652.8125,384.1094 Q652.8125,386.2031 653.5,387.2813 Q654.1875,388.3438 655.5313,388.3438 Q656.1563,388.3438 656.75,388.0781 Q657.3438,387.7969 657.9688,387.2188 L657.9688,389.9375 Z " fill="#000000"/><text fill="#000000" font-family="sans-serif" font-size="14" lengthAdjust="spacing" textLength="61.7354" x="669" y="389.1436">Cocinero</text><line style="stroke:#181818;stroke-width:0.5;" x1="641" x2="732.7354" y1="400.2969" y2="400.2969"/><line style="stroke:#181818;stroke-width:0.5;" x1="641" x2="732.7354" y1="408.2969" y2="408.2969"/></g><!--class JefedeCocina--><g id="elem_JefedeCocina"><rect codeLine="20" fill="#F1F1F1" height="48" id="JefedeCocina" rx="2.5" ry="2.5" style="stroke:#181818;stroke-width:0.5;" width="123.1641" x="769.5" y="368.2969"/><ellipse cx="784.5" cy="384.2969" fill="#ADD1B2" rx="11" ry="11" style="stroke:#181818;stroke-width:1.0;"/><path d="M787.4688,389.9375 Q786.8906,390.2344 786.25,390.375 Q785.6094,390.5313 784.9063,390.5313 Q782.4063,390.5313 781.0781,388.8906 Q779.7656,387.2344 779.7656,384.1094 Q779.7656,380.9844 781.0781,379.3281 Q782.4063,377.6719 784.9063,377.6719 Q785.6094,377.6719 786.25,377.8281 Q786.9063,377.9844 787.4688,378.2813 L787.4688,381 Q786.8438,380.4219 786.25,380.1563 Q785.6563,379.875 785.0313,379.875 Q783.6875,379.875 783,380.9531 Q782.3125,382.0156 782.3125,384.1094 Q782.3125,386.2031 783,387.2813 Q783.6875,388.3438 785.0313,388.3438 Q785.6563,388.3438 786.25,388.0781 Q786.8438,387.7969 787.4688,387.2188 L787.4688,389.9375 Z " fill="#000000"/><text fill="#000000" font-family="sans-serif" font-size="14" lengthAdjust="spacing" textLength="91.1641" x="798.5" y="389.1436">JefedeCocina</text><line style="stroke:#181818;stroke-width:0.5;" x1="770.5" x2="891.6641" y1="400.2969" y2="400.2969"/><line style="stroke:#181818;stroke-width:0.5;" x1="770.5" x2="891.6641" y1="408.2969" y2="408.2969"/></g><!--class Cocina--><g id="elem_Cocina"><rect codeLine="21" fill="#F1F1F1" height="48" id="Cocina" rx="2.5" ry="2.5" style="stroke:#181818;stroke-width:0.5;" width="79.3799" x="848.5" y="476.2969"/><ellipse cx="863.5" cy="492.2969" fill="#ADD1B2" rx="11" ry="11" style="stroke:#181818;stroke-width:1.0;"/><path d="M866.4688,497.9375 Q865.8906,498.2344 865.25,498.375 Q864.6094,498.5313 863.9063,498.5313 Q861.4063,498.5313 860.0781,496.8906 Q858.7656,495.2344 858.7656,492.1094 Q858.7656,488.9844 860.0781,487.3281 Q861.4063,485.6719 863.9063,485.6719 Q864.6094,485.6719 865.25,485.8281 Q865.9063,485.9844 866.4688,486.2813 L866.4688,489 Q865.8438,488.4219 865.25,488.1563 Q864.6563,487.875 864.0313,487.875 Q862.6875,487.875 862,488.9531 Q861.3125,490.0156 861.3125,492.1094 Q861.3125,494.2031 862,495.2813 Q862.6875,496.3438 864.0313,496.3438 Q864.6563,496.3438 865.25,496.0781 Q865.8438,495.7969 866.4688,495.2188 L866.4688,497.9375 Z " fill="#000000"/><text fill="#000000" font-family="sans-serif" font-size="14" lengthAdjust="spacing" textLength="47.3799" x="877.5" y="497.1436">Cocina</text><line style="stroke:#181818;stroke-width:0.5;" x1="849.5" x2="926.8799" y1="508.2969" y2="508.2969"/><line style="stroke:#181818;stroke-width:0.5;" x1="849.5" x2="926.8799" y1="516.2969" y2="516.2969"/></g><!--class JefedePersonal--><g id="elem_JefedePersonal"><rect codeLine="22" fill="#F1F1F1" height="48" id="JefedePersonal" rx="2.5" ry="2.5" style="stroke:#181818;stroke-width:0.5;" width="135.7969" x="428" y="152.2969"/><ellipse cx="443" cy="168.2969" fill="#ADD1B2" rx="11" ry="11" style="stroke:#181818;stroke-width:1.0;"/><path d="M445.9688,173.9375 Q445.3906,174.2344 444.75,174.375 Q444.1094,174.5313 443.4063,174.5313 Q440.9063,174.5313 439.5781,172.8906 Q438.2656,171.2344 438.2656,168.1094 Q438.2656,164.9844 439.5781,163.3281 Q440.9063,161.6719 443.4063,161.6719 Q444.1094,161.6719 444.75,161.8281 Q445.4063,161.9844 445.9688,162.2813 L445.9688,165 Q445.3438,164.4219 444.75,164.1563 Q444.1563,163.875 443.5313,163.875 Q442.1875,163.875 441.5,164.9531 Q440.8125,166.0156 440.8125,168.1094 Q440.8125,170.2031 441.5,171.2813 Q442.1875,172.3438 443.5313,172.3438 Q444.1563,172.3438 444.75,172.0781 Q445.3438,171.7969 445.9688,171.2188 L445.9688,173.9375 Z " fill="#000000"/><text fill="#000000" font-family="sans-serif" font-size="14" lengthAdjust="spacing" textLength="103.7969" x="457" y="173.1436">JefedePersonal</text><line style="stroke:#181818;stroke-width:0.5;" x1="429" x2="562.7969" y1="184.2969" y2="184.2969"/><line style="stroke:#181818;stroke-width:0.5;" x1="429" x2="562.7969" y1="192.2969" y2="192.2969"/></g><!--class Horno--><g id="elem_Horno"><rect codeLine="23" fill="#F1F1F1" height="48" id="Horno" rx="2.5" ry="2.5" style="stroke:#181818;stroke-width:0.5;" width="74.2871" x="851" y="584.2969"/><ellipse cx="866" cy="600.2969" fill="#ADD1B2" rx="11" ry="11" style="stroke:#181818;stroke-width:1.0;"/><path d="M868.9688,605.9375 Q868.3906,606.2344 867.75,606.375 Q867.1094,606.5313 866.4063,606.5313 Q863.9063,606.5313 862.5781,604.8906 Q861.2656,603.2344 861.2656,600.1094 Q861.2656,596.9844 862.5781,595.3281 Q863.9063,593.6719 866.4063,593.6719 Q867.1094,593.6719 867.75,593.8281 Q868.4063,593.9844 868.9688,594.2813 L868.9688,597 Q868.3438,596.4219 867.75,596.1563 Q867.1563,595.875 866.5313,595.875 Q865.1875,595.875 864.5,596.9531 Q863.8125,598.0156 863.8125,600.1094 Q863.8125,602.2031 864.5,603.2813 Q865.1875,604.3438 866.5313,604.3438 Q867.1563,604.3438 867.75,604.0781 Q868.3438,603.7969 868.9688,603.2188 L868.9688,605.9375 Z " fill="#000000"/><text fill="#000000" font-family="sans-serif" font-size="14" lengthAdjust="spacing" textLength="42.2871" x="880" y="605.1436">Horno</text><line style="stroke:#181818;stroke-width:0.5;" x1="852" x2="924.2871" y1="616.2969" y2="616.2969"/><line style="stroke:#181818;stroke-width:0.5;" x1="852" x2="924.2871" y1="624.2969" y2="624.2969"/></g><!--class Equipo--><g id="elem_Equipo"><rect codeLine="24" fill="#F1F1F1" height="48" id="Equipo" rx="2.5" ry="2.5" style="stroke:#181818;stroke-width:0.5;" width="79.9473" x="582" y="260.2969"/><ellipse cx="597" cy="276.2969" fill="#ADD1B2" rx="11" ry="11" style="stroke:#181818;stroke-width:1.0;"/><path d="M599.9688,281.9375 Q599.3906,282.2344 598.75,282.375 Q598.1094,282.5313 597.4063,282.5313 Q594.9063,282.5313 593.5781,280.8906 Q592.2656,279.2344 592.2656,276.1094 Q592.2656,272.9844 593.5781,271.3281 Q594.9063,269.6719 597.4063,269.6719 Q598.1094,269.6719 598.75,269.8281 Q599.4063,269.9844 599.9688,270.2813 L599.9688,273 Q599.3438,272.4219 598.75,272.1563 Q598.1563,271.875 597.5313,271.875 Q596.1875,271.875 595.5,272.9531 Q594.8125,274.0156 594.8125,276.1094 Q594.8125,278.2031 595.5,279.2813 Q596.1875,280.3438 597.5313,280.3438 Q598.1563,280.3438 598.75,280.0781 Q599.3438,279.7969 599.9688,279.2188 L599.9688,281.9375 Z " fill="#000000"/><text fill="#000000" font-family="sans-serif" font-size="14" lengthAdjust="spacing" textLength="47.9473" x="611" y="281.1436">Equipo</text><line style="stroke:#181818;stroke-width:0.5;" x1="583" x2="660.9473" y1="292.2969" y2="292.2969"/><line style="stroke:#181818;stroke-width:0.5;" x1="583" x2="660.9473" y1="300.2969" y2="300.2969"/></g><!--class Entrevista--><g id="elem_Entrevista"><rect codeLine="25" fill="#F1F1F1" height="48" id="Entrevista" rx="2.5" ry="2.5" style="stroke:#181818;stroke-width:0.5;" width="103.1143" x="377.5" y="260.2969"/><ellipse cx="392.5" cy="276.2969" fill="#ADD1B2" rx="11" ry="11" style="stroke:#181818;stroke-width:1.0;"/><path d="M395.4688,281.9375 Q394.8906,282.2344 394.25,282.375 Q393.6094,282.5313 392.9063,282.5313 Q390.4063,282.5313 389.0781,280.8906 Q387.7656,279.2344 387.7656,276.1094 Q387.7656,272.9844 389.0781,271.3281 Q390.4063,269.6719 392.9063,269.6719 Q393.6094,269.6719 394.25,269.8281 Q394.9063,269.9844 395.4688,270.2813 L395.4688,273 Q394.8438,272.4219 394.25,272.1563 Q393.6563,271.875 393.0313,271.875 Q391.6875,271.875 391,272.9531 Q390.3125,274.0156 390.3125,276.1094 Q390.3125,278.2031 391,279.2813 Q391.6875,280.3438 393.0313,280.3438 Q393.6563,280.3438 394.25,280.0781 Q394.8438,279.7969 395.4688,279.2188 L395.4688,281.9375 Z " fill="#000000"/><text fill="#000000" font-family="sans-serif" font-size="14" lengthAdjust="spacing" textLength="71.1143" x="406.5" y="281.1436">Entrevista</text><line style="stroke:#181818;stroke-width:0.5;" x1="378.5" x2="479.6143" y1="292.2969" y2="292.2969"/><line style="stroke:#181818;stroke-width:0.5;" x1="378.5" x2="479.6143" y1="300.2969" y2="300.2969"/></g><!--class Ensayo--><g id="elem_Ensayo"><rect codeLine="26" fill="#F1F1F1" height="48" id="Ensayo" rx="2.5" ry="2.5" style="stroke:#181818;stroke-width:0.5;" width="82.4424" x="272" y="368.2969"/><ellipse cx="287" cy="384.2969" fill="#ADD1B2" rx="11" ry="11" style="stroke:#181818;stroke-width:1.0;"/><path d="M289.9688,389.9375 Q289.3906,390.2344 288.75,390.375 Q288.1094,390.5313 287.4063,390.5313 Q284.9063,390.5313 283.5781,388.8906 Q282.2656,387.2344 282.2656,384.1094 Q282.2656,380.9844 283.5781,379.3281 Q284.9063,377.6719 287.4063,377.6719 Q288.1094,377.6719 288.75,377.8281 Q289.4063,377.9844 289.9688,378.2813 L289.9688,381 Q289.3438,380.4219 288.75,380.1563 Q288.1563,379.875 287.5313,379.875 Q286.1875,379.875 285.5,380.9531 Q284.8125,382.0156 284.8125,384.1094 Q284.8125,386.2031 285.5,387.2813 Q286.1875,388.3438 287.5313,388.3438 Q288.1563,388.3438 288.75,388.0781 Q289.3438,387.7969 289.9688,387.2188 L289.9688,389.9375 Z " fill="#000000"/><text fill="#000000" font-family="sans-serif" font-size="14" lengthAdjust="spacing" textLength="50.4424" x="301" y="389.1436">Ensayo</text><line style="stroke:#181818;stroke-width:0.5;" x1="273" x2="353.4424" y1="400.2969" y2="400.2969"/><line style="stroke:#181818;stroke-width:0.5;" x1="273" x2="353.4424" y1="408.2969" y2="408.2969"/></g><!--class Reglas--><g id="elem_Reglas"><rect codeLine="27" fill="#F1F1F1" height="48" id="Reglas" rx="2.5" ry="2.5" style="stroke:#181818;stroke-width:0.5;" width="78.9902" x="389.5" y="368.2969"/><ellipse cx="404.5" cy="384.2969" fill="#ADD1B2" rx="11" ry="11" style="stroke:#181818;stroke-width:1.0;"/><path d="M407.4688,389.9375 Q406.8906,390.2344 406.25,390.375 Q405.6094,390.5313 404.9063,390.5313 Q402.4063,390.5313 401.0781,388.8906 Q399.7656,387.2344 399.7656,384.1094 Q399.7656,380.9844 401.0781,379.3281 Q402.4063,377.6719 404.9063,377.6719 Q405.6094,377.6719 406.25,377.8281 Q406.9063,377.9844 407.4688,378.2813 L407.4688,381 Q406.8438,380.4219 406.25,380.1563 Q405.6563,379.875 405.0313,379.875 Q403.6875,379.875 403,380.9531 Q402.3125,382.0156 402.3125,384.1094 Q402.3125,386.2031 403,387.2813 Q403.6875,388.3438 405.0313,388.3438 Q405.6563,388.3438 406.25,388.0781 Q406.8438,387.7969 407.4688,387.2188 L407.4688,389.9375 Z " fill="#000000"/><text fill="#000000" font-family="sans-serif" font-size="14" lengthAdjust="spacing" textLength="46.9902" x="418.5" y="389.1436">Reglas</text><line style="stroke:#181818;stroke-width:0.5;" x1="390.5" x2="467.4902" y1="400.2969" y2="400.2969"/><line style="stroke:#181818;stroke-width:0.5;" x1="390.5" x2="467.4902" y1="408.2969" y2="408.2969"/></g><!--link Restaurante to JefedePersonal--><g id="link_Restaurante_JefedePersonal"><path codeLine="29" d="M436.49,92.2969 C449.15,109.9569 463.0637,129.3608 475.7837,147.1008 " fill="none" id="Restaurante-to-JefedePersonal" style="stroke:#181818;stroke-width:1.0;"/><polygon fill="#181818" points="479.28,151.9769,477.2863,142.3319,476.3664,147.9135,470.7849,146.9936,479.28,151.9769" style="stroke:#181818;stroke-width:1.0;"/></g><!--link Restaurante to Cocina--><g id="link_Restaurante_Cocina"><path codeLine="30" d="M490.6544,87.6172 C599.9244,118.9772 819.12,199.6369 910,368.2969 C928.49,402.6069 915.5022,443.2627 902.8222,470.6327 " fill="none" id="Restaurante-Cocina" style="stroke:#181818;stroke-width:1.0;"/><polygon fill="#181818" points="479.12,84.3069,483.7837,89.8068,490.6544,87.6172,485.9906,82.1172,479.12,84.3069" style="stroke:#181818;stroke-width:1.0;"/><polygon fill="#181818" points="900.3,476.0769,907.7127,469.5921,902.4018,471.5401,900.4538,466.2292,900.3,476.0769" style="stroke:#181818;stroke-width:1.0;"/></g><!--link Cocina to Horno--><g id="link_Cocina_Horno"><path codeLine="31" d="M888,536.2969 C888,553.9569 888,560.2369 888,577.9769 " fill="none" id="Cocina-Horno" style="stroke:#181818;stroke-width:1.0;"/><polygon fill="#181818" points="888,524.2969,884,530.2969,888,536.2969,892,530.2969,888,524.2969" style="stroke:#181818;stroke-width:1.0;"/><polygon fill="#181818" points="888,583.9769,892,574.9769,888,578.9769,884,574.9769,888,583.9769" style="stroke:#181818;stroke-width:1.0;"/></g><!--link JefedePersonal to Equipo--><g id="link_JefedePersonal_Equipo"><path codeLine="32" d="M523.34,200.2969 C544.33,217.9569 568.5984,238.3746 589.6884,256.1146 " fill="none" id="JefedePersonal-to-Equipo" style="stroke:#181818;stroke-width:1.0;"/><polygon fill="#181818" points="594.28,259.9769,589.9674,251.1224,590.4537,256.7583,584.8177,257.2446,594.28,259.9769" style="stroke:#181818;stroke-width:1.0;"/></g><!--link Equipo to JefedeCocina--><g id="link_Equipo_JefedeCocina"><path codeLine="33" d="M673.002,311.1653 C708.232,329.0353 743.299,346.8128 780.029,365.4428 " fill="none" id="Equipo-JefedeCocina" style="stroke:#181818;stroke-width:1.0;"/><polygon fill="#181818" points="662.3,305.7369,665.8415,312.0184,673.002,311.1653,669.4605,304.8838,662.3,305.7369" style="stroke:#181818;stroke-width:1.0;"/><polygon fill="#181818" points="785.38,368.1569,779.1629,360.5183,780.9208,365.8951,775.544,367.653,785.38,368.1569" style="stroke:#181818;stroke-width:1.0;"/></g><!--link Equipo to Camarero--><g id="link_Equipo_Camarero"><path codeLine="34" d="M600.7702,318.397 C589.4402,336.057 583.5797,345.1867 572.1997,362.9267 " fill="none" id="Equipo-Camarero" style="stroke:#181818;stroke-width:1.0;"/><polygon fill="#181818" points="607.25,308.2969,600.6434,311.187,600.7702,318.397,607.3768,315.5069,607.25,308.2969" style="stroke:#181818;stroke-width:1.0;"/><polygon fill="#181818" points="568.96,367.9769,577.1863,362.5613,571.6597,363.7684,570.4527,358.2418,568.96,367.9769" style="stroke:#181818;stroke-width:1.0;"/></g><!--link Equipo to Cocinero--><g id="link_Equipo_Cocinero"><path codeLine="35" d="M642.3733,318.5265 C653.2033,336.1865 658.6831,345.1222 669.5631,362.8622 " fill="none" id="Equipo-Cocinero" style="stroke:#181818;stroke-width:1.0;"/><polygon fill="#181818" points="636.1,308.2969,635.8268,315.5028,642.3733,318.5265,642.6465,311.3206,636.1,308.2969" style="stroke:#181818;stroke-width:1.0;"/><polygon fill="#181818" points="672.7,367.9769,671.4045,358.2136,670.086,363.7146,664.5849,362.3961,672.7,367.9769" style="stroke:#181818;stroke-width:1.0;"/></g><!--link JefedePersonal to Entrevista--><g id="link_JefedePersonal_Entrevista"><path codeLine="36" d="M481.46,200.2969 C470.3,217.9569 458.1551,237.1647 446.9451,254.9047 " fill="none" id="JefedePersonal-to-Entrevista" style="stroke:#181818;stroke-width:1.0;stroke-dasharray:7.0,7.0;"/><polygon fill="#181818" points="443.74,259.9769,451.9292,254.5054,446.411,255.7501,445.1663,250.2318,443.74,259.9769" style="stroke:#181818;stroke-width:1.0;"/></g><!--reverse link Entrevista to Ensayo--><g id="link_Entrevista_Ensayo"><path codeLine="37" d="M390.5441,320.4412 C371.2241,338.1012 357.93,350.2369 338.52,367.9769 " fill="none" id="Entrevista-backto-Ensayo" style="stroke:#181818;stroke-width:1.0;"/><polygon fill="none" points="403.83,308.2969,386.496,316.0126,394.5922,324.8699,403.83,308.2969" style="stroke:#181818;stroke-width:1.0;"/></g><!--reverse link Entrevista to Reglas--><g id="link_Entrevista_Reglas"><path codeLine="38" d="M429,326.2969 C429,343.9569 429,350.2369 429,367.9769 " fill="none" id="Entrevista-backto-Reglas" style="stroke:#181818;stroke-width:1.0;"/><polygon fill="none" points="429,308.2969,423,326.2969,435,326.2969,429,308.2969" style="stroke:#181818;stroke-width:1.0;"/></g><!--link Restaurante to Comedor--><g id="link_Restaurante_Comedor"><path codeLine="39" d="M396.7972,102.0916 C384.2972,119.7516 377.5152,129.3387 364.9652,147.0787 " fill="none" id="Restaurante-Comedor" style="stroke:#181818;stroke-width:1.0;"/><polygon fill="#181818" points="403.73,92.2969,396.9987,94.8833,396.7972,102.0916,403.5285,99.5052,403.73,92.2969" style="stroke:#181818;stroke-width:1.0;"/><polygon fill="#181818" points="361.5,151.9769,369.9633,146.9397,364.3877,147.895,363.4323,142.3194,361.5,151.9769" style="stroke:#181818;stroke-width:1.0;"/></g><!--link Restaurante to Terraza--><g id="link_Restaurante_Terraza"><path codeLine="40" d="M365.7751,97.8936 C331.8251,115.7936 300.8868,132.1072 267.1468,149.9072 " fill="none" id="Restaurante-Terraza" style="stroke:#181818;stroke-width:1.0;"/><polygon fill="#181818" points="376.39,92.2969,369.217,91.5569,365.7751,97.8936,372.9481,98.6335,376.39,92.2969" style="stroke:#181818;stroke-width:1.0;"/><polygon fill="#181818" points="261.84,152.7069,271.6666,152.0452,266.2623,150.3738,267.9337,144.9695,261.84,152.7069" style="stroke:#181818;stroke-width:1.0;"/></g><!--link JefedeCocina to Men?--><g id="link_JefedeCocina_Men&#250;"><path codeLine="41" d="M779.5,416.4069 C681.93,460.1769 477.9541,551.6805 394.6741,589.0505 " fill="none" id="JefedeCocina-to-Men&#250;" style="stroke:#181818;stroke-width:1.0;"/><polygon fill="#181818" points="389.2,591.5069,399.0488,591.4717,393.7618,589.4599,395.7736,584.1729,389.2,591.5069" style="stroke:#181818;stroke-width:1.0;"/></g><!--link Camarero to Envio--><g id="link_Camarero_Envio"><path codeLine="42" d="M503.3,411.0469 C497.49,412.8969 491.63,414.6869 486,416.2969 C370.05,449.3769 235.9684,477.9851 171.9384,491.0751 " fill="none" id="Camarero-to-Envio" style="stroke:#181818;stroke-width:1.0;"/><polygon fill="#181818" points="166.06,492.2769,175.6788,494.3932,170.9587,491.2754,174.0765,486.5553,166.06,492.2769" style="stroke:#181818;stroke-width:1.0;"/></g><!--link Comedor to Comensal--><g id="link_Comedor_Comensal"><path codeLine="43" d="M317.66,200.2969 C296.67,217.9569 272.4016,238.3746 251.3116,256.1146 " fill="none" id="Comedor-to-Comensal" style="stroke:#181818;stroke-width:1.0;"/><polygon fill="#181818" points="246.72,259.9769,256.1823,257.2446,250.5463,256.7583,251.0326,251.1224,246.72,259.9769" style="stroke:#181818;stroke-width:1.0;"/></g><!--link Terraza to Comensal--><g id="link_Terraza_Comensal"><path codeLine="44" d="M219,200.2969 C219,217.9569 219,236.2369 219,253.9769 " fill="none" id="Terraza-to-Comensal" style="stroke:#181818;stroke-width:1.0;"/><polygon fill="#181818" points="219,259.9769,223,250.9769,219,254.9769,215,250.9769,219,259.9769" style="stroke:#181818;stroke-width:1.0;"/></g><!--link Envio to Plato--><g id="link_Envio_Plato"><path codeLine="45" d="M131,524.2969 C131,541.9569 131,560.2369 131,577.9769 " fill="none" id="Envio-to-Plato" style="stroke:#181818;stroke-width:1.0;"/><polygon fill="#181818" points="131,583.9769,135,574.9769,131,578.9769,127,574.9769,131,583.9769" style="stroke:#181818;stroke-width:1.0;"/></g><!--link Plato to Ingrediente--><g id="link_Plato_Ingrediente"><path codeLine="46" d="M122.1769,643.9253 C117.6769,661.5853 115.9414,668.4226 111.4214,686.1626 " fill="none" id="Plato-Ingrediente" style="stroke:#181818;stroke-width:1.0;"/><polygon fill="#181818" points="125.14,632.2969,119.7823,637.1234,122.1769,643.9253,127.5346,639.0988,125.14,632.2969" style="stroke:#181818;stroke-width:1.0;"/><polygon fill="#181818" points="109.94,691.9769,116.0383,684.2431,111.1745,687.1317,108.286,682.2679,109.94,691.9769" style="stroke:#181818;stroke-width:1.0;"/></g><!--reverse link Ingrediente to Trigo--><g id="link_Ingrediente_Trigo"><path codeLine="47" d="M124.5583,756.2123 C133.8883,773.8723 138.31,782.2369 147.68,799.9769 " fill="none" id="Ingrediente-backto-Trigo" style="stroke:#181818;stroke-width:1.0;"/><polygon fill="none" points="116.15,740.2969,119.2532,759.0151,129.8634,753.4095,116.15,740.2969" style="stroke:#181818;stroke-width:1.0;"/></g><!--reverse link Ingrediente to Cebolla--><g id="link_Ingrediente_Cebolla"><path codeLine="48" d="M83.7751,756.2717 C74.6051,773.9317 70.3,782.2369 61.1,799.9769 " fill="none" id="Ingrediente-backto-Cebolla" style="stroke:#181818;stroke-width:1.0;"/><polygon fill="none" points="92.07,740.2969,78.4501,753.5067,89.1,759.0366,92.07,740.2969" style="stroke:#181818;stroke-width:1.0;"/></g><!--link Plato to Carta--><g id="link_Plato_Carta"><path codeLine="49" d="M170.82,608.2969 C184.79,608.2969 180.76,608.2969 194.73,608.2969 " fill="none" id="Plato-Carta" style="stroke:#181818;stroke-width:1.0;"/><polygon fill="#181818" points="164.82,608.2969,173.82,612.2969,169.82,608.2969,173.82,604.2969,164.82,608.2969" style="stroke:#181818;stroke-width:1.0;"/><polygon fill="#181818" points="206.73,608.2969,200.73,604.2969,194.73,608.2969,200.73,612.2969,206.73,608.2969" style="stroke:#181818;stroke-width:1.0;"/></g><!--link Men? to Desayuno--><g id="link_Men&#250;_Desayuno"><path codeLine="50" d="M330.78,632.2969 C312.96,649.9569 292.7128,670.0145 274.8028,687.7545 " fill="none" id="Men&#250;-to-Desayuno" style="stroke:#181818;stroke-width:1.0;"/><polygon fill="#181818" points="270.54,691.9769,279.7491,688.4852,274.0924,688.4582,274.1193,682.8015,270.54,691.9769" style="stroke:#181818;stroke-width:1.0;"/></g><!--link Men? to Cena--><g id="link_Men&#250;_Cena"><path codeLine="51" d="M356.82,632.2969 C358.99,649.9569 361.2282,668.2817 363.4082,686.0217 " fill="none" id="Men&#250;-to-Cena" style="stroke:#181818;stroke-width:1.0;"/><polygon fill="#181818" points="364.14,691.9769,367.0124,682.5562,363.5302,687.0142,359.0721,683.5319,364.14,691.9769" style="stroke:#181818;stroke-width:1.0;"/></g><!--link Men? to Comida--><g id="link_Men&#250;_Comida"><path codeLine="52" d="M381.12,632.2969 C401.95,649.9569 426.0038,670.3563 446.9238,688.0963 " fill="none" id="Men&#250;-to-Comida" style="stroke:#181818;stroke-width:1.0;"/><polygon fill="#181818" points="451.5,691.9769,447.2228,683.1053,447.6865,688.7431,442.0487,689.2068,451.5,691.9769" style="stroke:#181818;stroke-width:1.0;"/></g><!--link Carta to Men?--><g id="link_Carta_Men&#250;"><path codeLine="53" d="M283.44,608.2969 C297.19,608.2969 292.95,608.2969 306.71,608.2969 " fill="none" id="Carta-Men&#250;" style="stroke:#181818;stroke-width:1.0;"/><polygon fill="#181818" points="277.44,608.2969,286.44,612.2969,282.44,608.2969,286.44,604.2969,277.44,608.2969" style="stroke:#181818;stroke-width:1.0;"/><polygon fill="#181818" points="318.71,608.2969,312.71,604.2969,306.71,608.2969,312.71,612.2969,318.71,608.2969" style="stroke:#181818;stroke-width:1.0;"/></g><!--reverse link Comensal to Cr?tico--><g id="link_Comensal_Cr&#237;tico"><path codeLine="54" d="M187.2404,321.8899 C171.9104,339.5499 162.64,350.2369 147.24,367.9769 " fill="none" id="Comensal-backto-Cr&#237;tico" style="stroke:#181818;stroke-width:1.0;"/><polygon fill="none" points="199.04,308.2969,182.7094,317.9567,191.7714,325.8231,199.04,308.2969" style="stroke:#181818;stroke-width:1.0;"/></g><!--link Comensal to Men?--><g id="link_Comensal_Men&#250;"><path codeLine="55" d="M223.57,308.5069 C229.18,335.0769 239.72,379.6669 254,416.2969 C278.67,479.5969 315.5336,544.0076 336.6936,579.1276 " fill="none" id="Comensal-to-Men&#250;" style="stroke:#181818;stroke-width:1.0;stroke-dasharray:7.0,7.0;"/><polygon fill="#181818" points="339.79,584.2669,338.5715,574.4937,337.2096,579.9842,331.7192,578.6223,339.79,584.2669" style="stroke:#181818;stroke-width:1.0;"/></g><!--link JefedeCocina to Cocina--><g id="link_JefedeCocina_Cocina"><path codeLine="56" d="M843.37,416.2969 C852.86,433.9569 863.0782,452.9525 872.6182,470.6925 " fill="none" id="JefedeCocina-to-Cocina" style="stroke:#181818;stroke-width:1.0;"/><polygon fill="#181818" points="875.46,475.9769,874.7203,466.1558,873.0919,471.5732,867.6745,469.9448,875.46,475.9769" style="stroke:#181818;stroke-width:1.0;"/></g><!--SRC=[TLDHJiCm3FtlAVgDj9q0xGSc0TAaQTe5mkfDaR84d7HeY2jn0NvtCKOSEsvNVfhOpx7zNkraauDs5JfmOGCncHwDJz0qEsTYRBMBF0_X23uQLymj89fFey0kOB4U8PfpxmE3u5MSxTXOWR_yC60miN_jJEAtp_w0q5bGVS1hS8vZjsWF7Blq9oiryVATx4vCSpG8A6ROML_D5zX31zbfT8GPu6l06Bm8y1HG62xVU_jMsqW89nk5p_8gspc8i8VhsJHAu7RMXGy_Muphw90xZYcDqL7TrCqmWUGjxT5HtmneZq5Hx0PWxKR5vd_uVA7frsjx_qNlMOmfg4Zp3sqQi4cGPr4J4l8qPKodQfA7fQHjTPayv2NbBP3VYPj6DNzhEtfcrRqIfQ6TX7YwypvSKphO9wcJgKXjsRAXEs_Ro4LRHqx9IIl7n5GBl3e2yQybAITL9lCN]--></g></svg>