<svg xmlns="http://www.w3.org/2000/svg" xmlns:xlink="http://www.w3.org/1999/xlink" contentStyleType="text/css" height="423px" preserveAspectRatio="none" style="width:693px;height:423px;background:#FFFFFF;" version="1.1" viewBox="0 0 693 423" width="693px" zoomAndPan="magnify"><defs/><g><text fill="#000000" font-family="sans-serif" font-size="14" font-weight="bold" lengthAdjust="spacing" textLength="112.2871" x="283.854" y="22.9951">ModeloMaster</text><!--class Master--><g id="elem_Master"><rect fill="#F1F1F1" height="48" id="Master" rx="2.5" ry="2.5" style="stroke:#181818;stroke-width:0.5;" width="79.8105" x="206" y="44.2969"/><ellipse cx="221" cy="60.2969" fill="#ADD1B2" rx="11" ry="11" style="stroke:#181818;stroke-width:1.0;"/><path d="M223.9688,65.9375 Q223.3906,66.2344 222.75,66.375 Q222.1094,66.5313 221.4063,66.5313 Q218.9063,66.5313 217.5781,64.8906 Q216.2656,63.2344 216.2656,60.1094 Q216.2656,56.9844 217.5781,55.3281 Q218.9063,53.6719 221.4063,53.6719 Q222.1094,53.6719 222.75,53.8281 Q223.4063,53.9844 223.9688,54.2813 L223.9688,57 Q223.3438,56.4219 222.75,56.1563 Q222.1563,55.875 221.5313,55.875 Q220.1875,55.875 219.5,56.9531 Q218.8125,58.0156 218.8125,60.1094 Q218.8125,62.2031 219.5,63.2813 Q220.1875,64.3438 221.5313,64.3438 Q222.1563,64.3438 222.75,64.0781 Q223.3438,63.7969 223.9688,63.2188 L223.9688,65.9375 Z " fill="#000000"/><text fill="#000000" font-family="sans-serif" font-size="14" lengthAdjust="spacing" textLength="47.8105" x="235" y="65.1436">Master</text><line style="stroke:#181818;stroke-width:0.5;" x1="207" x2="284.8105" y1="76.2969" y2="76.2969"/><line style="stroke:#181818;stroke-width:0.5;" x1="207" x2="284.8105" y1="84.2969" y2="84.2969"/></g><!--class Knowlage--><g id="elem_Knowlage"><rect fill="#F1F1F1" height="48" id="Knowlage" rx="2.5" ry="2.5" style="stroke:#181818;stroke-width:0.5;" width="100.0381" x="66" y="152.2969"/><ellipse cx="81" cy="168.2969" fill="#ADD1B2" rx="11" ry="11" style="stroke:#181818;stroke-width:1.0;"/><path d="M83.9688,173.9375 Q83.3906,174.2344 82.75,174.375 Q82.1094,174.5313 81.4063,174.5313 Q78.9063,174.5313 77.5781,172.8906 Q76.2656,171.2344 76.2656,168.1094 Q76.2656,164.9844 77.5781,163.3281 Q78.9063,161.6719 81.4063,161.6719 Q82.1094,161.6719 82.75,161.8281 Q83.4063,161.9844 83.9688,162.2813 L83.9688,165 Q83.3438,164.4219 82.75,164.1563 Q82.1563,163.875 81.5313,163.875 Q80.1875,163.875 79.5,164.9531 Q78.8125,166.0156 78.8125,168.1094 Q78.8125,170.2031 79.5,171.2813 Q80.1875,172.3438 81.5313,172.3438 Q82.1563,172.3438 82.75,172.0781 Q83.3438,171.7969 83.9688,171.2188 L83.9688,173.9375 Z " fill="#000000"/><text fill="#000000" font-family="sans-serif" font-size="14" lengthAdjust="spacing" textLength="68.0381" x="95" y="173.1436">Knowlage</text><line style="stroke:#181818;stroke-width:0.5;" x1="67" x2="165.0381" y1="184.2969" y2="184.2969"/><line style="stroke:#181818;stroke-width:0.5;" x1="67" x2="165.0381" y1="192.2969" y2="192.2969"/></g><!--class Teacher--><g id="elem_Teacher"><rect fill="#F1F1F1" height="48" id="Teacher" rx="2.5" ry="2.5" style="stroke:#181818;stroke-width:0.5;" width="88.6836" x="201.5" y="152.2969"/><ellipse cx="216.5" cy="168.2969" fill="#ADD1B2" rx="11" ry="11" style="stroke:#181818;stroke-width:1.0;"/><path d="M219.4688,173.9375 Q218.8906,174.2344 218.25,174.375 Q217.6094,174.5313 216.9063,174.5313 Q214.4063,174.5313 213.0781,172.8906 Q211.7656,171.2344 211.7656,168.1094 Q211.7656,164.9844 213.0781,163.3281 Q214.4063,161.6719 216.9063,161.6719 Q217.6094,161.6719 218.25,161.8281 Q218.9063,161.9844 219.4688,162.2813 L219.4688,165 Q218.8438,164.4219 218.25,164.1563 Q217.6563,163.875 217.0313,163.875 Q215.6875,163.875 215,164.9531 Q214.3125,166.0156 214.3125,168.1094 Q214.3125,170.2031 215,171.2813 Q215.6875,172.3438 217.0313,172.3438 Q217.6563,172.3438 218.25,172.0781 Q218.8438,171.7969 219.4688,171.2188 L219.4688,173.9375 Z " fill="#000000"/><text fill="#000000" font-family="sans-serif" font-size="14" lengthAdjust="spacing" textLength="56.6836" x="230.5" y="173.1436">Teacher</text><line style="stroke:#181818;stroke-width:0.5;" x1="202.5" x2="289.1836" y1="184.2969" y2="184.2969"/><line style="stroke:#181818;stroke-width:0.5;" x1="202.5" x2="289.1836" y1="192.2969" y2="192.2969"/></g><!--class Alumn--><g id="elem_Alumn"><rect fill="#F1F1F1" height="48" id="Alumn" rx="2.5" ry="2.5" style="stroke:#181818;stroke-width:0.5;" width="76.8506" x="374.5" y="152.2969"/><ellipse cx="389.5" cy="168.2969" fill="#ADD1B2" rx="11" ry="11" style="stroke:#181818;stroke-width:1.0;"/><path d="M392.4688,173.9375 Q391.8906,174.2344 391.25,174.375 Q390.6094,174.5313 389.9063,174.5313 Q387.4063,174.5313 386.0781,172.8906 Q384.7656,171.2344 384.7656,168.1094 Q384.7656,164.9844 386.0781,163.3281 Q387.4063,161.6719 389.9063,161.6719 Q390.6094,161.6719 391.25,161.8281 Q391.9063,161.9844 392.4688,162.2813 L392.4688,165 Q391.8438,164.4219 391.25,164.1563 Q390.6563,163.875 390.0313,163.875 Q388.6875,163.875 388,164.9531 Q387.3125,166.0156 387.3125,168.1094 Q387.3125,170.2031 388,171.2813 Q388.6875,172.3438 390.0313,172.3438 Q390.6563,172.3438 391.25,172.0781 Q391.8438,171.7969 392.4688,171.2188 L392.4688,173.9375 Z " fill="#000000"/><text fill="#000000" font-family="sans-serif" font-size="14" lengthAdjust="spacing" textLength="44.8506" x="403.5" y="173.1436">Alumn</text><line style="stroke:#181818;stroke-width:0.5;" x1="375.5" x2="450.3506" y1="184.2969" y2="184.2969"/><line style="stroke:#181818;stroke-width:0.5;" x1="375.5" x2="450.3506" y1="192.2969" y2="192.2969"/></g><!--class Asistant--><g id="elem_Asistant"><rect fill="#F1F1F1" height="48" id="Asistant" rx="2.5" ry="2.5" style="stroke:#181818;stroke-width:0.5;" width="88.4854" x="201" y="260.2969"/><ellipse cx="216" cy="276.2969" fill="#ADD1B2" rx="11" ry="11" style="stroke:#181818;stroke-width:1.0;"/><path d="M218.9688,281.9375 Q218.3906,282.2344 217.75,282.375 Q217.1094,282.5313 216.4063,282.5313 Q213.9063,282.5313 212.5781,280.8906 Q211.2656,279.2344 211.2656,276.1094 Q211.2656,272.9844 212.5781,271.3281 Q213.9063,269.6719 216.4063,269.6719 Q217.1094,269.6719 217.75,269.8281 Q218.4063,269.9844 218.9688,270.2813 L218.9688,273 Q218.3438,272.4219 217.75,272.1563 Q217.1563,271.875 216.5313,271.875 Q215.1875,271.875 214.5,272.9531 Q213.8125,274.0156 213.8125,276.1094 Q213.8125,278.2031 214.5,279.2813 Q215.1875,280.3438 216.5313,280.3438 Q217.1563,280.3438 217.75,280.0781 Q218.3438,279.7969 218.9688,279.2188 L218.9688,281.9375 Z " fill="#000000"/><text fill="#000000" font-family="sans-serif" font-size="14" lengthAdjust="spacing" textLength="56.4854" x="230" y="281.1436">Asistant</text><line style="stroke:#181818;stroke-width:0.5;" x1="202" x2="288.4854" y1="292.2969" y2="292.2969"/><line style="stroke:#181818;stroke-width:0.5;" x1="202" x2="288.4854" y1="300.2969" y2="300.2969"/></g><!--class Teorice--><g id="elem_Teorice"><rect fill="#F1F1F1" height="48" id="Teorice" rx="2.5" ry="2.5" style="stroke:#181818;stroke-width:0.5;" width="83.6865" x="324" y="260.2969"/><ellipse cx="339" cy="276.2969" fill="#ADD1B2" rx="11" ry="11" style="stroke:#181818;stroke-width:1.0;"/><path d="M341.9688,281.9375 Q341.3906,282.2344 340.75,282.375 Q340.1094,282.5313 339.4063,282.5313 Q336.9063,282.5313 335.5781,280.8906 Q334.2656,279.2344 334.2656,276.1094 Q334.2656,272.9844 335.5781,271.3281 Q336.9063,269.6719 339.4063,269.6719 Q340.1094,269.6719 340.75,269.8281 Q341.4063,269.9844 341.9688,270.2813 L341.9688,273 Q341.3438,272.4219 340.75,272.1563 Q340.1563,271.875 339.5313,271.875 Q338.1875,271.875 337.5,272.9531 Q336.8125,274.0156 336.8125,276.1094 Q336.8125,278.2031 337.5,279.2813 Q338.1875,280.3438 339.5313,280.3438 Q340.1563,280.3438 340.75,280.0781 Q341.3438,279.7969 341.9688,279.2188 L341.9688,281.9375 Z " fill="#000000"/><text fill="#000000" font-family="sans-serif" font-size="14" lengthAdjust="spacing" textLength="51.6865" x="353" y="281.1436">Teorice</text><line style="stroke:#181818;stroke-width:0.5;" x1="325" x2="406.6865" y1="292.2969" y2="292.2969"/><line style="stroke:#181818;stroke-width:0.5;" x1="325" x2="406.6865" y1="300.2969" y2="300.2969"/></g><!--class Practice--><g id="elem_Practice"><rect fill="#F1F1F1" height="48" id="Practice" rx="2.5" ry="2.5" style="stroke:#181818;stroke-width:0.5;" width="88.1641" x="7" y="260.2969"/><ellipse cx="22" cy="276.2969" fill="#ADD1B2" rx="11" ry="11" style="stroke:#181818;stroke-width:1.0;"/><path d="M24.9688,281.9375 Q24.3906,282.2344 23.75,282.375 Q23.1094,282.5313 22.4063,282.5313 Q19.9063,282.5313 18.5781,280.8906 Q17.2656,279.2344 17.2656,276.1094 Q17.2656,272.9844 18.5781,271.3281 Q19.9063,269.6719 22.4063,269.6719 Q23.1094,269.6719 23.75,269.8281 Q24.4063,269.9844 24.9688,270.2813 L24.9688,273 Q24.3438,272.4219 23.75,272.1563 Q23.1563,271.875 22.5313,271.875 Q21.1875,271.875 20.5,272.9531 Q19.8125,274.0156 19.8125,276.1094 Q19.8125,278.2031 20.5,279.2813 Q21.1875,280.3438 22.5313,280.3438 Q23.1563,280.3438 23.75,280.0781 Q24.3438,279.7969 24.9688,279.2188 L24.9688,281.9375 Z " fill="#000000"/><text fill="#000000" font-family="sans-serif" font-size="14" lengthAdjust="spacing" textLength="56.1641" x="36" y="281.1436">Practice</text><line style="stroke:#181818;stroke-width:0.5;" x1="8" x2="94.1641" y1="292.2969" y2="292.2969"/><line style="stroke:#181818;stroke-width:0.5;" x1="8" x2="94.1641" y1="300.2969" y2="300.2969"/></g><!--class Critic--><g id="elem_Critic"><rect fill="#F1F1F1" height="48" id="Critic" rx="2.5" ry="2.5" style="stroke:#181818;stroke-width:0.5;" width="68.4971" x="514" y="260.2969"/><ellipse cx="529" cy="276.2969" fill="#ADD1B2" rx="11" ry="11" style="stroke:#181818;stroke-width:1.0;"/><path d="M531.9688,281.9375 Q531.3906,282.2344 530.75,282.375 Q530.1094,282.5313 529.4063,282.5313 Q526.9063,282.5313 525.5781,280.8906 Q524.2656,279.2344 524.2656,276.1094 Q524.2656,272.9844 525.5781,271.3281 Q526.9063,269.6719 529.4063,269.6719 Q530.1094,269.6719 530.75,269.8281 Q531.4063,269.9844 531.9688,270.2813 L531.9688,273 Q531.3438,272.4219 530.75,272.1563 Q530.1563,271.875 529.5313,271.875 Q528.1875,271.875 527.5,272.9531 Q526.8125,274.0156 526.8125,276.1094 Q526.8125,278.2031 527.5,279.2813 Q528.1875,280.3438 529.5313,280.3438 Q530.1563,280.3438 530.75,280.0781 Q531.3438,279.7969 531.9688,279.2188 L531.9688,281.9375 Z " fill="#000000"/><text fill="#000000" font-family="sans-serif" font-size="14" lengthAdjust="spacing" textLength="36.4971" x="543" y="281.1436">Critic</text><line style="stroke:#181818;stroke-width:0.5;" x1="515" x2="581.4971" y1="292.2969" y2="292.2969"/><line style="stroke:#181818;stroke-width:0.5;" x1="515" x2="581.4971" y1="300.2969" y2="300.2969"/></g><!--class Artist--><g id="elem_Artist"><rect fill="#F1F1F1" height="48" id="Artist" rx="2.5" ry="2.5" style="stroke:#181818;stroke-width:0.5;" width="69.4951" x="617.5" y="260.2969"/><ellipse cx="632.5" cy="276.2969" fill="#ADD1B2" rx="11" ry="11" style="stroke:#181818;stroke-width:1.0;"/><path d="M635.4688,281.9375 Q634.8906,282.2344 634.25,282.375 Q633.6094,282.5313 632.9063,282.5313 Q630.4063,282.5313 629.0781,280.8906 Q627.7656,279.2344 627.7656,276.1094 Q627.7656,272.9844 629.0781,271.3281 Q630.4063,269.6719 632.9063,269.6719 Q633.6094,269.6719 634.25,269.8281 Q634.9063,269.9844 635.4688,270.2813 L635.4688,273 Q634.8438,272.4219 634.25,272.1563 Q633.6563,271.875 633.0313,271.875 Q631.6875,271.875 631,272.9531 Q630.3125,274.0156 630.3125,276.1094 Q630.3125,278.2031 631,279.2813 Q631.6875,280.3438 633.0313,280.3438 Q633.6563,280.3438 634.25,280.0781 Q634.8438,279.7969 635.4688,279.2188 L635.4688,281.9375 Z " fill="#000000"/><text fill="#000000" font-family="sans-serif" font-size="14" lengthAdjust="spacing" textLength="37.4951" x="646.5" y="281.1436">Artist</text><line style="stroke:#181818;stroke-width:0.5;" x1="618.5" x2="685.9951" y1="292.2969" y2="292.2969"/><line style="stroke:#181818;stroke-width:0.5;" x1="618.5" x2="685.9951" y1="300.2969" y2="300.2969"/></g><!--class Support--><g id="elem_Support"><rect fill="#F1F1F1" height="48" id="Support" rx="2.5" ry="2.5" style="stroke:#181818;stroke-width:0.5;" width="87.3438" x="201.5" y="368.2969"/><ellipse cx="216.5" cy="384.2969" fill="#ADD1B2" rx="11" ry="11" style="stroke:#181818;stroke-width:1.0;"/><path d="M219.4688,389.9375 Q218.8906,390.2344 218.25,390.375 Q217.6094,390.5313 216.9063,390.5313 Q214.4063,390.5313 213.0781,388.8906 Q211.7656,387.2344 211.7656,384.1094 Q211.7656,380.9844 213.0781,379.3281 Q214.4063,377.6719 216.9063,377.6719 Q217.6094,377.6719 218.25,377.8281 Q218.9063,377.9844 219.4688,378.2813 L219.4688,381 Q218.8438,380.4219 218.25,380.1563 Q217.6563,379.875 217.0313,379.875 Q215.6875,379.875 215,380.9531 Q214.3125,382.0156 214.3125,384.1094 Q214.3125,386.2031 215,387.2813 Q215.6875,388.3438 217.0313,388.3438 Q217.6563,388.3438 218.25,388.0781 Q218.8438,387.7969 219.4688,387.2188 L219.4688,389.9375 Z " fill="#000000"/><text fill="#000000" font-family="sans-serif" font-size="14" lengthAdjust="spacing" textLength="55.3438" x="230.5" y="389.1436">Support</text><line style="stroke:#181818;stroke-width:0.5;" x1="202.5" x2="287.8438" y1="400.2969" y2="400.2969"/><line style="stroke:#181818;stroke-width:0.5;" x1="202.5" x2="287.8438" y1="408.2969" y2="408.2969"/></g><!--link Master to Knowlage--><g id="link_Master_Knowlage"><path codeLine="3" d="M208.4912,99.8819 C186.8412,117.5419 171.0104,130.4456 149.2504,148.1856 " fill="none" id="Master-Knowlage" style="stroke:#181818;stroke-width:1.0;"/><polygon fill="#181818" points="217.79,92.2969,210.6123,92.9898,208.4912,99.8819,215.669,99.189,217.79,92.2969" style="stroke:#181818;stroke-width:1.0;"/><polygon fill="#181818" points="144.6,151.9769,154.1031,149.3902,148.4753,148.8175,149.0481,143.1897,144.6,151.9769" style="stroke:#181818;stroke-width:1.0;"/></g><!--link Master to Teacher--><g id="link_Master_Teacher"><path codeLine="4" d="M246,104.2969 C246,121.9569 246,128.2369 246,145.9769 " fill="none" id="Master-Teacher" style="stroke:#181818;stroke-width:1.0;"/><polygon fill="#181818" points="246,92.2969,242,98.2969,246,104.2969,250,98.2969,246,92.2969" style="stroke:#181818;stroke-width:1.0;"/><polygon fill="#181818" points="246,151.9769,250,142.9769,246,146.9769,242,142.9769,246,151.9769" style="stroke:#181818;stroke-width:1.0;"/></g><!--link Master to Alumn--><g id="link_Master_Alumn"><path codeLine="5" d="M292.3707,98.7288 C320.2807,116.4488 343.514,131.192 371.484,148.942 " fill="none" id="Master-Alumn" style="stroke:#181818;stroke-width:1.0;"/><polygon fill="#181818" points="282.24,92.2969,285.1614,98.8897,292.3707,98.7288,289.4493,92.136,282.24,92.2969" style="stroke:#181818;stroke-width:1.0;"/><polygon fill="#181818" points="376.55,152.1569,371.0943,143.9572,372.3283,149.4778,366.8077,150.7118,376.55,152.1569" style="stroke:#181818;stroke-width:1.0;"/><text fill="#000000" font-family="sans-serif" font-size="13" lengthAdjust="spacing" textLength="24.7749" x="341.4528" y="141.9224">1..n</text></g><!--link Teacher to Alumn--><g id="link_Teacher_Alumn"><path codeLine="7" d="M290.69,176.2969 C318.56,176.2969 340.43,176.2969 368.3,176.2969 " fill="none" id="Teacher-to-Alumn" style="stroke:#181818;stroke-width:1.0;"/><polygon fill="#181818" points="374.3,176.2969,365.3,172.2969,369.3,176.2969,365.3,180.2969,374.3,176.2969" style="stroke:#181818;stroke-width:1.0;"/></g><!--reverse link Knowlage to Teacher--><g id="link_Knowlage_Teacher"><path codeLine="8" d="M172.02,176.2969 C183.79,176.2969 189.56,176.2969 201.32,176.2969 " fill="none" id="Knowlage-backto-Teacher" style="stroke:#181818;stroke-width:1.0;"/><polygon fill="#181818" points="166.02,176.2969,175.02,180.2969,171.02,176.2969,175.02,172.2969,166.02,176.2969" style="stroke:#181818;stroke-width:1.0;"/></g><!--link Teacher to Asistant--><g id="link_Teacher_Asistant"><path codeLine="9" d="M245.78,200.2969 C245.62,217.9569 245.4475,236.2372 245.2775,253.9772 " fill="none" id="Teacher-to-Asistant" style="stroke:#181818;stroke-width:1.0;"/><polygon fill="#181818" points="245.22,259.9769,249.3061,251.0156,245.2679,254.9771,241.3064,250.939,245.22,259.9769" style="stroke:#181818;stroke-width:1.0;"/></g><!--link Knowlage to Teorice--><g id="link_Knowlage_Teorice"><path codeLine="11" d="M177.3378,203.3014 C223.5378,222.8914 274.666,244.5747 318.156,263.0147 " fill="none" id="Knowlage-Teorice" style="stroke:#181818;stroke-width:1.0;"/><polygon fill="#181818" points="166.29,198.6169,170.2524,204.6418,177.3378,203.3014,173.3754,197.2765,166.29,198.6169" style="stroke:#181818;stroke-width:1.0;"/><polygon fill="#181818" points="323.68,265.3569,316.9555,258.1609,319.0767,263.4051,313.8326,265.5262,323.68,265.3569" style="stroke:#181818;stroke-width:1.0;"/></g><!--link Knowlage to Practice--><g id="link_Knowlage_Practice"><path codeLine="12" d="M95.6267,210.5265 C84.7967,228.1865 79.3169,237.1222 68.4369,254.8622 " fill="none" id="Knowlage-Practice" style="stroke:#181818;stroke-width:1.0;"/><polygon fill="#181818" points="101.9,200.2969,95.3535,203.3206,95.6267,210.5265,102.1732,207.5028,101.9,200.2969" style="stroke:#181818;stroke-width:1.0;"/><polygon fill="#181818" points="65.3,259.9769,73.4151,254.3961,67.914,255.7146,66.5955,250.2136,65.3,259.9769" style="stroke:#181818;stroke-width:1.0;"/></g><!--link Alumn to Critic--><g id="link_Alumn_Critic"><path codeLine="14" d="M451.728,207.708 C474.218,225.368 490.9911,238.5311 513.5811,256.2711 " fill="none" id="Alumn-Critic" style="stroke:#181818;stroke-width:1.0;"/><polygon fill="#181818" points="442.29,200.2969,444.5386,207.1484,451.728,207.708,449.4794,200.8564,442.29,200.2969" style="stroke:#181818;stroke-width:1.0;"/><polygon fill="#181818" points="518.3,259.9769,513.6922,251.2724,514.3676,256.8888,508.7512,257.5642,518.3,259.9769" style="stroke:#181818;stroke-width:1.0;"/></g><!--link Alumn to Artist--><g id="link_Alumn_Artist"><path codeLine="15" d="M462.6396,199.3119 C508.4796,219.6419 567.7454,245.924 611.7954,265.464 " fill="none" id="Alumn-Artist" style="stroke:#181818;stroke-width:1.0;"/><polygon fill="#181818" points="451.67,194.4469,455.5331,200.5359,462.6396,199.3119,458.7765,193.2228,451.67,194.4469" style="stroke:#181818;stroke-width:1.0;"/><polygon fill="#181818" points="617.28,267.8969,610.675,260.5911,612.7095,265.8695,607.4311,267.9039,617.28,267.8969" style="stroke:#181818;stroke-width:1.0;"/></g><!--link Alumn to Teorice--><g id="link_Alumn_Teorice"><path codeLine="16" d="M402.8,200.2969 C394.97,217.9569 386.6431,236.7523 378.7731,254.4923 " fill="none" id="Alumn-to-Teorice" style="stroke:#181818;stroke-width:1.0;stroke-dasharray:7.0,7.0;"/><polygon fill="#181818" points="376.34,259.9769,383.646,253.3722,378.3676,255.4064,376.3333,250.128,376.34,259.9769" style="stroke:#181818;stroke-width:1.0;"/></g><!--link Asistant to Support--><g id="link_Asistant_Support"><path codeLine="18" d="M245,308.2969 C245,325.9569 245,344.2369 245,361.9769 " fill="none" id="Asistant-to-Support" style="stroke:#181818;stroke-width:1.0;"/><polygon fill="#181818" points="245,367.9769,249,358.9769,245,362.9769,241,358.9769,245,367.9769" style="stroke:#181818;stroke-width:1.0;"/></g><!--reverse link Teacher to Support--><g id="link_Teacher_Support"><path codeLine="19" d="M217.5804,204.9765 C203.3004,220.3765 190.67,237.4969 183,260.2969 C176.2,280.5169 176.27,288.0469 183,308.2969 C190.6,331.1669 207.23,352.8369 221.36,368.2969 " fill="none" id="Teacher-backto-Support" style="stroke:#181818;stroke-width:1.0;stroke-dasharray:7.0,7.0;"/><polygon fill="#181818" points="221.66,200.5769,212.6075,204.4565,218.2603,204.2432,218.4736,209.896,221.66,200.5769" style="stroke:#181818;stroke-width:1.0;"/></g><!--link Alumn to Support--><g id="link_Alumn_Support"><path codeLine="20" d="M423.24,200.6469 C433.77,228.5569 445.93,275.5969 425,308.2969 C395.13,354.9569 337.5125,374.5267 294.5025,383.5367 " fill="none" id="Alumn-to-Support" style="stroke:#181818;stroke-width:1.0;stroke-dasharray:7.0,7.0;"/><polygon fill="#181818" points="288.63,384.7669,298.2589,386.8366,293.5238,383.7417,296.6186,379.0065,288.63,384.7669" style="stroke:#181818;stroke-width:1.0;"/></g><!--SRC=[RP312eCm44Jl-nN1Oo61_a11UYn2eVs1e5iDf8ci6_nzOutHsfuMtancXh1XYwBo3LfVwO6H09OhJhBnevCNSND-jBh57-69kkxYYoClpagvGfGsl1r0SWb9fkquoWlFsEABzorPI6dbO0RMZW5Motw19rFZ7-LEkkPPWa_T9bp9H7wa9N5iILJDK6tfi4x8cnwXxpqnf2jKwDNs7zyfoJC1]--></g></svg>