<svg xmlns="http://www.w3.org/2000/svg" xmlns:xlink="http://www.w3.org/1999/xlink" contentStyleType="text/css" height="315px" preserveAspectRatio="none" style="width:232px;height:315px;background:#FFFFFF;" version="1.1" viewBox="0 0 232 315" width="232px" zoomAndPan="magnify"><defs/><g><text fill="#000000" font-family="sans-serif" font-size="14" font-weight="bold" lengthAdjust="spacing" textLength="100.8164" x="58.8462" y="22.9951">UMLmeninas</text><!--class MeninasPicture--><g id="elem_MeninasPicture"><rect fill="#F1F1F1" height="48" id="MeninasPicture" rx="2.5" ry="2.5" style="stroke:#181818;stroke-width:0.5;" width="138.9619" x="37.5" y="44.2969"/><ellipse cx="52.5" cy="60.2969" fill="#ADD1B2" rx="11" ry="11" style="stroke:#181818;stroke-width:1.0;"/><path d="M55.4688,65.9375 Q54.8906,66.2344 54.25,66.375 Q53.6094,66.5313 52.9063,66.5313 Q50.4063,66.5313 49.0781,64.8906 Q47.7656,63.2344 47.7656,60.1094 Q47.7656,56.9844 49.0781,55.3281 Q50.4063,53.6719 52.9063,53.6719 Q53.6094,53.6719 54.25,53.8281 Q54.9063,53.9844 55.4688,54.2813 L55.4688,57 Q54.8438,56.4219 54.25,56.1563 Q53.6563,55.875 53.0313,55.875 Q51.6875,55.875 51,56.9531 Q50.3125,58.0156 50.3125,60.1094 Q50.3125,62.2031 51,63.2813 Q51.6875,64.3438 53.0313,64.3438 Q53.6563,64.3438 54.25,64.0781 Q54.8438,63.7969 55.4688,63.2188 L55.4688,65.9375 Z " fill="#000000"/><text fill="#000000" font-family="sans-serif" font-size="14" lengthAdjust="spacing" textLength="106.9619" x="66.5" y="65.1436">MeninasPicture</text><line style="stroke:#181818;stroke-width:0.5;" x1="38.5" x2="175.4619" y1="76.2969" y2="76.2969"/><line style="stroke:#181818;stroke-width:0.5;" x1="38.5" x2="175.4619" y1="84.2969" y2="84.2969"/></g><!--class Character--><g id="elem_Character"><rect fill="#F1F1F1" height="48" id="Character" rx="2.5" ry="2.5" style="stroke:#181818;stroke-width:0.5;" width="101.1182" x="108.5" y="152.2969"/><ellipse cx="123.5" cy="168.2969" fill="#ADD1B2" rx="11" ry="11" style="stroke:#181818;stroke-width:1.0;"/><path d="M126.4688,173.9375 Q125.8906,174.2344 125.25,174.375 Q124.6094,174.5313 123.9063,174.5313 Q121.4063,174.5313 120.0781,172.8906 Q118.7656,171.2344 118.7656,168.1094 Q118.7656,164.9844 120.0781,163.3281 Q121.4063,161.6719 123.9063,161.6719 Q124.6094,161.6719 125.25,161.8281 Q125.9063,161.9844 126.4688,162.2813 L126.4688,165 Q125.8438,164.4219 125.25,164.1563 Q124.6563,163.875 124.0313,163.875 Q122.6875,163.875 122,164.9531 Q121.3125,166.0156 121.3125,168.1094 Q121.3125,170.2031 122,171.2813 Q122.6875,172.3438 124.0313,172.3438 Q124.6563,172.3438 125.25,172.0781 Q125.8438,171.7969 126.4688,171.2188 L126.4688,173.9375 Z " fill="#000000"/><text fill="#000000" font-family="sans-serif" font-size="14" lengthAdjust="spacing" textLength="69.1182" x="137.5" y="173.1436">Character</text><line style="stroke:#181818;stroke-width:0.5;" x1="109.5" x2="208.6182" y1="184.2969" y2="184.2969"/><line style="stroke:#181818;stroke-width:0.5;" x1="109.5" x2="208.6182" y1="192.2969" y2="192.2969"/></g><!--class Position--><g id="elem_Position"><rect fill="#F1F1F1" height="48" id="Position" rx="2.5" ry="2.5" style="stroke:#181818;stroke-width:0.5;" width="87.0088" x="138.5" y="260.2969"/><ellipse cx="153.5" cy="276.2969" fill="#ADD1B2" rx="11" ry="11" style="stroke:#181818;stroke-width:1.0;"/><path d="M156.4688,281.9375 Q155.8906,282.2344 155.25,282.375 Q154.6094,282.5313 153.9063,282.5313 Q151.4063,282.5313 150.0781,280.8906 Q148.7656,279.2344 148.7656,276.1094 Q148.7656,272.9844 150.0781,271.3281 Q151.4063,269.6719 153.9063,269.6719 Q154.6094,269.6719 155.25,269.8281 Q155.9063,269.9844 156.4688,270.2813 L156.4688,273 Q155.8438,272.4219 155.25,272.1563 Q154.6563,271.875 154.0313,271.875 Q152.6875,271.875 152,272.9531 Q151.3125,274.0156 151.3125,276.1094 Q151.3125,278.2031 152,279.2813 Q152.6875,280.3438 154.0313,280.3438 Q154.6563,280.3438 155.25,280.0781 Q155.8438,279.7969 156.4688,279.2188 L156.4688,281.9375 Z " fill="#000000"/><text fill="#000000" font-family="sans-serif" font-size="14" lengthAdjust="spacing" textLength="55.0088" x="167.5" y="281.1436">Position</text><line style="stroke:#181818;stroke-width:0.5;" x1="139.5" x2="224.5088" y1="292.2969" y2="292.2969"/><line style="stroke:#181818;stroke-width:0.5;" x1="139.5" x2="224.5088" y1="300.2969" y2="300.2969"/></g><!--class Observer--><g id="elem_Observer"><rect fill="#F1F1F1" height="48" id="Observer" rx="2.5" ry="2.5" style="stroke:#181818;stroke-width:0.5;" width="96.2236" x="7" y="260.2969"/><ellipse cx="22" cy="276.2969" fill="#ADD1B2" rx="11" ry="11" style="stroke:#181818;stroke-width:1.0;"/><path d="M24.9688,281.9375 Q24.3906,282.2344 23.75,282.375 Q23.1094,282.5313 22.4063,282.5313 Q19.9063,282.5313 18.5781,280.8906 Q17.2656,279.2344 17.2656,276.1094 Q17.2656,272.9844 18.5781,271.3281 Q19.9063,269.6719 22.4063,269.6719 Q23.1094,269.6719 23.75,269.8281 Q24.4063,269.9844 24.9688,270.2813 L24.9688,273 Q24.3438,272.4219 23.75,272.1563 Q23.1563,271.875 22.5313,271.875 Q21.1875,271.875 20.5,272.9531 Q19.8125,274.0156 19.8125,276.1094 Q19.8125,278.2031 20.5,279.2813 Q21.1875,280.3438 22.5313,280.3438 Q23.1563,280.3438 23.75,280.0781 Q24.3438,279.7969 24.9688,279.2188 L24.9688,281.9375 Z " fill="#000000"/><text fill="#000000" font-family="sans-serif" font-size="14" lengthAdjust="spacing" textLength="64.2236" x="36" y="281.1436">Observer</text><line style="stroke:#181818;stroke-width:0.5;" x1="8" x2="102.2236" y1="292.2969" y2="292.2969"/><line style="stroke:#181818;stroke-width:0.5;" x1="8" x2="102.2236" y1="300.2969" y2="300.2969"/></g><!--link MeninasPicture to Character--><g id="link_MeninasPicture_Character"><path codeLine="3" d="M123.5683,103.0688 C132.2383,120.7288 136.2181,128.8498 144.9181,146.5898 " fill="none" id="MeninasPicture-Character" style="stroke:#181818;stroke-width:1.0;"/><polygon fill="#181818" points="118.28,92.2969,117.3335,99.4456,123.5683,103.0688,124.5148,95.92,118.28,92.2969" style="stroke:#181818;stroke-width:1.0;"/><polygon fill="#181818" points="147.56,151.9769,147.1885,142.135,145.3584,147.4877,140.0058,145.6576,147.56,151.9769" style="stroke:#181818;stroke-width:1.0;"/><text fill="#000000" font-family="sans-serif" font-size="13" lengthAdjust="spacing" textLength="16.542" x="126.8732" y="141.3038">12</text></g><!--link Character to Position--><g id="link_Character_Position"><path codeLine="4" d="M163.99,200.2969 C167.82,217.9569 171.8175,236.3734 175.6675,254.1134 " fill="none" id="Character-to-Position" style="stroke:#181818;stroke-width:1.0;"/><polygon fill="#181818" points="176.94,259.9769,178.9402,250.3333,175.8796,255.0906,171.1222,252.03,176.94,259.9769" style="stroke:#181818;stroke-width:1.0;"/></g><!--link Character to Observer--><g id="link_Character_Observer"><path codeLine="5" d="M128.0276,208.8642 C110.7076,226.5242 99.4814,237.9534 82.0814,255.6934 " fill="none" id="Character-Observer" style="stroke:#181818;stroke-width:1.0;"/><polygon fill="#181818" points="136.43,200.2969,129.373,201.7797,128.0276,208.8642,135.0846,207.3814,136.43,200.2969" style="stroke:#181818;stroke-width:1.0;"/><polygon fill="#181818" points="77.88,259.9769,87.0378,256.3526,81.3812,256.4073,81.3264,250.7507,77.88,259.9769" style="stroke:#181818;stroke-width:1.0;"/><text fill="#000000" font-family="sans-serif" font-size="13" lengthAdjust="spacing" textLength="8.271" x="74.4878" y="249.3038">2</text></g><!--link Observer to Position--><g id="link_Observer_Position"><path codeLine="6" d="M103.12,284.2969 C114.83,284.2969 120.54,284.2969 132.25,284.2969 " fill="none" id="Observer-to-Position" style="stroke:#181818;stroke-width:1.0;"/><polygon fill="#181818" points="138.25,284.2969,129.25,280.2969,133.25,284.2969,129.25,288.2969,138.25,284.2969" style="stroke:#181818;stroke-width:1.0;"/></g><!--reverse link MeninasPicture to Observer--><g id="link_MeninasPicture_Observer"><path codeLine="7" d="M97.0864,110.0971 C87.0764,151.2571 70.65,218.8769 60.66,260.0169 " fill="none" id="MeninasPicture-backto-Observer" style="stroke:#181818;stroke-width:1.0;"/><polygon fill="none" points="101.34,92.6069,91.2564,108.6792,102.9165,111.5149,101.34,92.6069" style="stroke:#181818;stroke-width:1.0;"/></g><!--SRC=[AyaioKbL2FNroKtDoynBBERYyeKm0ZAJIqgBKXMqT5Foo_DqxHIK38sK59mp4eiIaqjIYxZWB0NTeipqZ1AWYe3yuioIpFmy93c4Rg1c_wJYrA8oe5uO0ujMX5HfWMwDdGAgQm00]--></g></svg>